STARTFONT 2.1
COMMENT
COMMENT Converted from OpenType font "Q:\font stuff\winfont\Butterfly.otf" by "otf2bdf 3.0".
COMMENT
FONT -FreeType-Butterfly-Medium-R-Normal--72-720-72-72-P-380-ISO10646-1
SIZE 72 72 72
FONTBOUNDINGBOX 146 80 -34 -27
STARTPROPERTIES 19
FOUNDRY "FreeType"
FAMILY_NAME "Butterfly"
WEIGHT_NAME "Medium"
SLANT "R"
SETWIDTH_NAME "Normal"
ADD_STYLE_NAME ""
PIXEL_SIZE 72
POINT_SIZE 720
RESOLUTION_X 72
RESOLUTION_Y 72
SPACING "P"
AVERAGE_WIDTH 380
CHARSET_REGISTRY "ISO10646"
CHARSET_ENCODING "1"
FONT_ASCENT 53
FONT_DESCENT 25
COPYRIGHT "N/A"
_OTF_FONTFILE "Q:\font stuff\winfont\Butterfly.otf"
_OTF_PSNAME "Butterfly"
ENDPROPERTIES
CHARS 175
STARTCHAR 0020
ENCODING 32
SWIDTH 194 0
DWIDTH 14 0
BBX 0 0 0 0
BITMAP
ENDCHAR
STARTCHAR 0021
ENCODING 33
SWIDTH 305 0
DWIDTH 22 0
BBX 32 44 6 0
BITMAP
00000001
00000003
00000007
0000000E
0000000C
00000018
00000038
00000070
00000060
000000C0
000001C0
00000180
00000300
00000600
00000600
00000C00
00001800
00001000
00003000
00006000
00004000
00008000
00010000
00010000
00020000
00040000
00080000
00080000
00100000
00200000
00400000
00400000
00800000
01000000
02000000
02000000
04000000
00000000
00000000
00000000
20000000
60000000
E0000000
C0000000
ENDCHAR
STARTCHAR 0022
ENCODING 34
SWIDTH 277 0
DWIDTH 20 0
BBX 11 17 29 27
BITMAP
0420
0E60
0C60
0CE0
1CE0
18C0
19C0
3180
3180
3100
2300
6200
4200
4200
8400
8400
8000
ENDCHAR
STARTCHAR 0023
ENCODING 35
SWIDTH 250 0
DWIDTH 18 0
BBX 16 15 1 1
BITMAP
0021
0042
0044
0084
0108
0EF7
0210
0420
0840
FFF8
1080
2100
2100
4200
0400
ENDCHAR
STARTCHAR 0024
ENCODING 36
SWIDTH 291 0
DWIDTH 21 0
BBX 30 41 -1 -8
BITMAP
00000004
0000000C
00000008
00000010
00000020
000001E0
00000660
00000890
00001090
00003120
00002220
00006440
00006480
00004800
0000D000
0000E000
0000E000
0000C000
0000C000
0000C000
0001C000
0002C000
0184C000
0604C000
0408C000
0810C000
10208000
10618000
10418000
10830000
11020000
12040000
0A180000
07E00000
08000000
18000000
10000000
20000000
40000000
80000000
80000000
ENDCHAR
STARTCHAR 0025
ENCODING 37
SWIDTH 458 0
DWIDTH 33 0
BBX 29 37 4 -9
BITMAP
00007000
00019000
00031008
00071010
001A1020
00122040
00326080
00624300
00C18600
00817C00
01820800
01041000
01082000
0210C380
02210C40
01C21080
00042080
00184080
00308100
00618200
00C30200
01860400
03040800
060C1000
0C082000
18084000
18088000
30090000
20060000
60000000
40000000
40000000
80400000
80800000
81000000
42000000
3C000000
ENDCHAR
STARTCHAR 0026
ENCODING 38
SWIDTH 652 0
DWIDTH 47 0
BBX 34 35 13 -5
BITMAP
0000003800
000000C800
0000010800
0000021000
0000042000
000008C000
0000130000
00003C0000
0000700000
0001C00000
000F803E00
007181C180
01C3060040
0303000040
0E06000040
1C06000040
380F800080
307FFE0100
61980FFE00
6218040000
C438080000
C830080000
C830100000
C830200000
C030400000
4060800000
6061000000
2022000000
182C000000
07F0000000
0020040000
0030080000
0010100000
0008200000
0007C00000
ENDCHAR
STARTCHAR 0027
ENCODING 39
SWIDTH 250 0
DWIDTH 18 0
BBX 8 7 30 36
BITMAP
03
06
0C
18
30
40
80
ENDCHAR
STARTCHAR 0028
ENCODING 40
SWIDTH 652 0
DWIDTH 47 0
BBX 44 58 26 -9
BITMAP
000000000010
000000000060
000000000180
000000000600
000000001800
000000006000
000000008000
000000030000
0000000C0000
000000180000
000000200000
000000C00000
000001800000
000003000000
00000E000000
00001C000000
000038000000
000070000000
0000E0000000
0001C0000000
000380000000
000700000000
000E00000000
001E00000000
001C00000000
003800000000
007000000000
007000000000
00E000000000
00C000000000
01C000000000
018000000000
038000000000
030000000000
060000000000
060000000000
040000000000
0C0000000000
0C0000000000
080000000000
180000000000
100000000000
100000000000
100000000000
200000000000
200000000000
200000000000
400000000000
400000000000
400000000000
400000000000
400000000000
400000000000
800000000000
800000000000
800000000000
800000000000
800000000000
ENDCHAR
STARTCHAR 0029
ENCODING 41
SWIDTH 652 0
DWIDTH 47 0
BBX 44 59 15 -8
BITMAP
000000000010
000000000010
000000000010
000000000010
000000000010
000000000010
000000000020
000000000020
000000000020
000000000020
000000000020
000000000020
000000000040
000000000040
000000000040
000000000040
000000000080
000000000080
000000000080
000000000180
000000000100
000000000300
000000000300
000000000600
000000000600
000000000C00
000000000C00
000000001800
000000001800
000000003000
000000007000
000000006000
00000000E000
00000001C000
000000038000
000000038000
000000070000
0000000E0000
0000001C0000
000000380000
000000700000
000000F00000
000001C00000
000003800000
000007000000
00000E000000
00001C000000
000030000000
000060000000
000180000000
000200000000
000C00000000
001000000000
006000000000
018000000000
020000000000
0C0000000000
300000000000
C00000000000
ENDCHAR
STARTCHAR 002A
ENCODING 42
SWIDTH 194 0
DWIDTH 14 0
BBX 9 7 5 38
BITMAP
6200
2400
1800
FF80
1400
1200
3100
ENDCHAR
STARTCHAR 002B
ENCODING 43
SWIDTH 305 0
DWIDTH 22 0
BBX 15 14 7 0
BITMAP
0008
0010
0020
0020
0040
0080
0080
FFFE
0200
0200
0400
0800
0800
1000
ENDCHAR
STARTCHAR 002C
ENCODING 44
SWIDTH 222 0
DWIDTH 16 0
BBX 9 8 1 -6
BITMAP
0180
0380
0700
0E00
1800
3000
6000
8000
ENDCHAR
STARTCHAR 002D
ENCODING 45
SWIDTH 333 0
DWIDTH 24 0
BBX 15 4 9 10
BITMAP
7802
8704
01E8
0010
ENDCHAR
STARTCHAR 002E
ENCODING 46
SWIDTH 166 0
DWIDTH 12 0
BBX 3 4 5 -2
BITMAP
20
E0
C0
C0
ENDCHAR
STARTCHAR 002F
ENCODING 47
SWIDTH 361 0
DWIDTH 26 0
BBX 25 44 11 0
BITMAP
00000180
00000100
00000300
00000200
00000600
00000C00
00000800
00001800
00001000
00003000
00002000
00006000
00004000
0000C000
00008000
00018000
00030000
00020000
00060000
00040000
000C0000
00080000
00180000
00100000
00300000
00200000
00600000
00C00000
00C00000
01800000
01000000
03000000
02000000
06000000
04000000
0C000000
18000000
18000000
30000000
30000000
60000000
40000000
C0000000
80000000
ENDCHAR
STARTCHAR 0030
ENCODING 48
SWIDTH 263 0
DWIDTH 19 0
BBX 17 19 3 0
BITMAP
000380
000E80
003880
007080
00C080
038100
070100
0E0200
1C0600
180400
300800
601800
603000
406000
C0C000
818000
860000
7C0000
700000
ENDCHAR
STARTCHAR 0031
ENCODING 49
SWIDTH 263 0
DWIDTH 19 0
BBX 14 18 4 1
BITMAP
0004
0008
0010
0010
0020
0040
0080
0380
0500
0A00
0600
0400
0800
1000
2000
2000
4000
8000
ENDCHAR
STARTCHAR 0032
ENCODING 50
SWIDTH 263 0
DWIDTH 19 0
BBX 21 18 0 1
BITMAP
0007F0
001818
002018
004218
004410
008820
009040
006180
000200
001800
006000
018000
060000
080000
300000
600000
B80000
07F000
ENDCHAR
STARTCHAR 0033
ENCODING 51
SWIDTH 263 0
DWIDTH 19 0
BBX 27 29 -7 -9
BITMAP
00001FC0
00006060
00008060
00010840
00021040
00022080
00024100
00018200
00000C00
00001000
00006000
00018000
00078000
00004000
00006000
00006000
00006000
00006000
0000C000
0000C000
00018000
00010000
00030000
40060000
80080000
40300000
40400000
33800000
0C000000
ENDCHAR
STARTCHAR 0034
ENCODING 52
SWIDTH 263 0
DWIDTH 19 0
BBX 25 26 0 0
BITMAP
00000180
00000300
00000200
00000400
00000800
00001000
00003000
00006000
0000C000
00008800
00011000
00022000
00044000
00088000
00108000
00610000
00C20000
01840000
03040000
0E080000
38100000
FFFF0000
00600000
00C00000
00800000
01800000
ENDCHAR
STARTCHAR 0035
ENCODING 53
SWIDTH 263 0
DWIDTH 19 0
BBX 29 29 -7 -8
BITMAP
00000C00
00000FF8
00001040
00002000
00002000
00004000
00008000
00008000
00010000
00020000
0005F000
00060800
00080800
00100800
00000800
00001800
00001000
00003000
00006000
00006000
0000C000
00018000
00030000
00060000
C00C0000
80300000
80400000
41800000
3E000000
ENDCHAR
STARTCHAR 0036
ENCODING 54
SWIDTH 263 0
DWIDTH 19 0
BBX 30 30 2 0
BITMAP
0000000C
00000030
000000C0
00000300
00000C00
00003000
0000C000
00010000
00020000
000C3000
0018C800
00230800
00C41000
01881000
03101000
06202000
04002000
0C004000
18008000
10008000
20010000
60020000
40040000
40080000
C0100000
80200000
80C00000
81000000
86000000
78000000
ENDCHAR
STARTCHAR 0037
ENCODING 55
SWIDTH 263 0
DWIDTH 19 0
BBX 27 29 -4 -7
BITMAP
00008000
00017FE0
00018040
00020080
00040100
00000200
00000400
00000800
00001000
00002000
00004000
00008000
00010000
00020000
000C0000
00100000
00200000
00400000
00800000
00800000
01000000
02000000
04000000
08000000
10000000
10000000
20000000
40000000
C0000000
ENDCHAR
STARTCHAR 0038
ENCODING 56
SWIDTH 263 0
DWIDTH 19 0
BBX 31 30 1 -2
BITMAP
000000C2
00000734
00000808
00003038
00002048
00006090
0000C110
0000C220
00018420
00019800
0001A000
0001C000
00038000
000D8000
00118000
00618000
01818000
02030000
0C030000
10030000
20020000
40060000
40040000
80080000
80100000
80200000
80400000
40800000
27000000
18000000
ENDCHAR
STARTCHAR 0039
ENCODING 57
SWIDTH 263 0
DWIDTH 19 0
BBX 30 31 -10 -12
BITMAP
00000038
000000EC
00000304
00000604
00001804
00003004
0000600C
0000C008
00018008
00030010
00060030
000C0020
00080060
001800C0
00101180
00202300
00204700
00408600
00410800
00423000
002C6000
0010C000
00010000
00060000
00080000
00300000
00C00000
01000000
06000000
18000000
E0000000
ENDCHAR
STARTCHAR 003A
ENCODING 58
SWIDTH 236 0
DWIDTH 17 0
BBX 8 10 6 -2
BITMAP
03
07
06
04
00
00
20
70
E0
C0
ENDCHAR
STARTCHAR 003B
ENCODING 59
SWIDTH 236 0
DWIDTH 17 0
BBX 12 14 2 -6
BITMAP
0030
0070
0060
0060
0000
0000
0100
0300
0600
0C00
1800
2000
4000
8000
ENDCHAR
STARTCHAR 003C
ENCODING 60
SWIDTH 222 0
DWIDTH 16 0
BBX 12 11 5 2
BITMAP
0030
00E0
0700
1C00
E000
8000
E000
3800
0E00
0380
00E0
ENDCHAR
STARTCHAR 003D
ENCODING 61
SWIDTH 305 0
DWIDTH 22 0
BBX 20 7 4 4
BITMAP
FFFFF0
000000
000000
000000
000000
000000
FFFFF0
ENDCHAR
STARTCHAR 003E
ENCODING 62
SWIDTH 222 0
DWIDTH 16 0
BBX 12 11 4 2
BITMAP
6000
1800
0700
01C0
0070
0010
0070
0380
0E00
7000
C000
ENDCHAR
STARTCHAR 003F
ENCODING 63
SWIDTH 402 0
DWIDTH 29 0
BBX 36 44 8 -1
BITMAP
00000007C0
0000003820
000000C010
0000010010
0000060010
00000C0010
0000100010
0000200030
0000400820
0000C01060
0000802060
00010020C0
0002004180
0002008380
0004010300
0004020600
0008040C00
0008081000
0008102000
000460C000
0003810000
0000020000
00000C0000
0000100000
0000200000
0000C00000
0001000000
0006000000
0008000000
0010000000
0020000000
0040000000
0080000000
0100000000
0200000000
0200000000
0000000000
0000000000
0000000000
0000000000
2000000000
6000000000
E000000000
C000000000
ENDCHAR
STARTCHAR 0040
ENCODING 64
SWIDTH 347 0
DWIDTH 25 0
BBX 22 19 5 -2
BITMAP
003FF0
00C018
010008
060004
0C1EC4
183F84
10E384
21C308
618608
430610
470C30
C61C20
C62CC0
C7CF80
C00000
C00000
600100
300600
1FF800
ENDCHAR
STARTCHAR 0041
ENCODING 65
SWIDTH 847 0
DWIDTH 61 0
BBX 77 49 8 -7
BITMAP
00000000000000000018
00000000000000000070
000000000000000001A0
00000000000000000240
00000000000000000CC0
0000000000F000001080
000000000F0800002100
00000000300400004300
00000000C0020F808600
000000030003F07A0C00
00000004000600060800
00000018001A00099800
00000020006200107000
00000040018400306000
0000010002040060E000
00000200040400C0D000
00000C00080801819000
0000D800001003031000
003F37C0001006061000
01C0603C00200C0E1000
0600C0078040180C1000
08018000F08030182000
300300003F0060304000
4002000007C0C0704000
4006000005F180E18000
400C0000083F00C20000
801800001007C19C0000
80180000600C3FE00000
80300000801C07000000
80300003003806000000
4060000C00700C000000
2040003000E01C000000
20C001C001C018000000
18C00E00038030000000
0783F000070060100000
01FC00000E00E0200000
018000000C00C0400000
01000000380180800000
01000000600101000000
01000000C00302000000
01000001800204000000
01000003000218000000
01000004000260000000
01000018000180000000
00800020000000000000
008000C0000000000000
00400300000000000000
00300C00000000000000
000FF000000000000000
ENDCHAR
STARTCHAR 0042
ENCODING 66
SWIDTH 847 0
DWIDTH 61 0
BBX 60 50 13 -6
BITMAP
00000000001FF800
0000000003E00700
000000001C000080
00000000E0000040
00001FC700000020
0000E03800000020
0007006400000030
001800C200000030
0020030200003830
00C00E0200004430
0100180100018830
0200300100030830
0400E00200061030
0801C002000C2060
0803800200182060
10060004003040C0
200C0004006080C0
2018000800C10180
4030000800820300
4070001001840200
8060002003080400
80C0002006300800
8180004006403000
830000800C80C000
8200000019030000
860000003E7C0000
8C00000038180000
8800000070060000
98000000E0030000
50000001C0030000
7000000180018000
2000000700018000
6000001F0FC18000
7800006630438000
4400038C40438000
43803C1880438000
407FC03900470000
C000003200870000
80000064010E0000
800000C4010E0000
80000188021C0000
8000031004380000
8000021000700000
4000041000E00000
4000182001C00000
4000302003000000
2000401006000000
1001801018000000
0C060008E0000000
03F8000700000000
ENDCHAR
STARTCHAR 0043
ENCODING 67
SWIDTH 541 0
DWIDTH 39 0
BBX 58 50 3 -5
BITMAP
0000000000000F00
000000000001F080
000000FFC00E0040
0000030038700040
00000C0005800040
0000100006000080
000020001A000100
0000400021000200
00004000C1000C00
0000800181003000
000100020080C000
0001000C00830000
00010018009C0000
0002003000E00000
000000E00F000000
000001C1F1000000
000003BE01000000
000007E001000000
00001E0002000000
0000FC0002000000
0003180004000000
000C380004000000
0010700FF8000000
0060E01008000000
0080C06014000000
0301C08024000000
0403810044000000
0803020084000000
1007020104000000
2006040204000000
400C080404000000
400C100804000000
8008101008000000
8018002008000000
8010004018000000
8010008010000000
8030030020000000
80200C0060000000
8020300040000000
4020C00080000000
3027000180000000
0FF8000300000000
0020000600000000
0020000C00000000
0020001800000000
0020003000000000
0010004000000000
0008018000000000
0004060000000000
0003F80000000000
ENDCHAR
STARTCHAR 0044
ENCODING 68
SWIDTH 819 0
DWIDTH 59 0
BBX 70 50 7 -7
BITMAP
00000000FFFC000000
0000000F0003000000
000000300000C00000
000000C00000300000
000003000000080000
00000C000000040000
0000180000000207E0
000060000000013810
0000C000003E014008
0001800000C1818004
00030001E300428000
000600061C004C8000
000C00180800388000
001C00201400204000
001800402400604000
003000804400D04000
006001008400904000
006002010401104000
00C004010403104000
00C008020806204000
01800802080C204000
01801004080C204000
01001004081820C000
03002000103820C000
030020001030408000
020040001070408000
0200400020E0818000
0200400020C0818000
0600800041C1010000
060080008381030000
020080008382030000
020080010702060000
0200800206040E0000
020080040E080C0000
020080081C10180000
020080301820380000
010040403040300000
008041806080600000
00402200C100C00000
00202C00C201C00000
001FF0018C03800000
000008033007000000
0000070FC00C000000
000000F80018000000
3FE000300030000000
401F00C000C0000000
8001F1800300000000
80001F000C00000000
6001E3FDF000000000
1FFE00020000000000
ENDCHAR
STARTCHAR 0045
ENCODING 69
SWIDTH 569 0
DWIDTH 41 0
BBX 53 50 8 -6
BITMAP
00000000003FC0
0000000003C030
000000000E0008
00000000380008
00001FC0E00008
0000E033800008
0001000F000010
0002000E000040
0004001D000180
00080018800E00
00080038807000
00100030478000
00100030F80000
0000003F400000
000001E0400000
00001E20200000
0000E030200000
00070030200000
00180018400000
0020000C400000
00C0003FF80000
030003C0400000
04000C00400000
08006000800000
1000C000800000
20030001000000
200E01F9000000
401C0606000000
40381803000000
80702005000000
80E04009000000
80E08009800000
81C08011800000
81810021800000
83820041800000
83020081000000
47000303000000
47000403000000
26001806000000
16006006000000
0E03800C000000
07FC0008000000
06000010000000
06000020000000
03000040000000
03000080000000
01800300000000
00C00400000000
00303800000000
000FC000000000
ENDCHAR
STARTCHAR 0046
ENCODING 70
SWIDTH 722 0
DWIDTH 52 0
BBX 79 49 3 -6
BITMAP
000000000001FE00007E
0000000001FFFFF803F2
000000001FC01FFFC602
00000000F0000003FFFC
00000003800000004000
0000000C000000008000
00000030000000010000
00000060000000060000
000000800000000C0000
0000030000FC00180000
00000400030400300000
000008000C0200600000
00001000100200C00000
00002000600201800000
00002000800403000000
00004001000402000000
00008002000406000000
0001000400080C000000
00010008000818000000
00020010001038200000
00020010002070200000
00040020002060400000
000400400040C0C00000
0008005FFFF1C3000000
000801FFFFFFFC000000
00080E80010380000000
00081080020700000000
00086100040E00000000
06088100181C00000000
08090100201800000000
300A0200403000000000
40040201807000000000
400C0206006000000000
800B021800C000000000
8010C260018000000000
80103F80030000000000
80100200060000000000
801002000C0000000000
80100200180000000000
80100200200000000000
80100100400000000000
40080100800000000000
40040103000000000000
20038084000000000000
10000098000000000000
08000060008000000000
060003A0030000000000
01E07C1C0C0000000000
001F8003F00000000000
ENDCHAR
STARTCHAR 0047
ENCODING 71
SWIDTH 611 0
DWIDTH 44 0
BBX 72 70 -4 -24
BITMAP
00000000000000007C
000000000000000783
0000000000FF003801
000000000300C0C001
000000000C00230001
0000000010001C0002
000000002000300004
000000004000D00008
000000004001880030
0000000080060800C0
00000000800C080700
000000010038083800
0000000100700BC000
0000000100E1FC0000
0000000001FE100000
000000001F80100000
00000000E700100000
000000070E00200000
000000181C0020E000
000000603800412000
000001807000422000
00000200E000844000
00000401C001088000
000018018001108000
000010030002110000
000020070004220000
000040060008420000
0000400E0010440000
0000401C0020880000
000040180040900000
000040180081200000
000040300301400000
000040300C02800000
000020603003000000
00001060C002000000
00000C670002000000
000003F8000C000000
000000C00018000000
000000C00028000000
000000C000C8000000
000000C00110000000
000000400610000000
000000401820000000
000000206020000000
0000001F8040000000
000000000040000000
000000000080000000
000000000080000000
000000000100200000
000000000100C00000
000000000201000000
0003FFFFFFFE000000
003C00000400000000
00C000000800000000
030000001800000000
0C0000003000000000
100000006000000000
20000000C000000000
400000018000000000
800000030000000000
800000060000000000
8000000C0000000000
800000180000000000
800000200000000000
800000C00000000000
800001000000000000
400006000000000000
200038000000000000
1801C0000000000000
07FE00000000000000
ENDCHAR
STARTCHAR 0048
ENCODING 72
SWIDTH 861 0
DWIDTH 62 0
BBX 88 50 8 -8
BITMAP
000000000000008000001E
0000000000000FE000007F
0000000000003E700001C1
000000000000E010000382
0000000000018008000602
0000000000020008000C04
0000000000040018001804
0000000007F80010003008
0000000038140010006010
00000000C022003000C020
0000000300420030018020
0000000400820020030040
0000001800820060070080
0000002001020060060300
00000040010200C00C0400
00000180020201C0180800
0000020002020180301000
0000FFFFFE040380606000
000F0803FD040300E18000
0070100004C80601C60000
0180100004360E03980000
06002000041FFDFF600000
080040000830FA06000000
100080000840300C000000
200100000880601C000000
4003000005006018000000
400200000600C430000000
800400000C018860000000
800C0000340310E0000000
80080000C20620C0000000
80180001010EC180000000
40100006009F0380000000
2030003800780300000000
103000C000300600000000
0860070000600604000000
0760780000C00C08000000
00FF800001800810000000
0040000003001810000000
0040000006001020000000
00C000000C002040000000
0040000018002080000000
0040000020004100000000
0040000040004200000000
0040000180004400000000
0060000200003800000000
0020000C00000000000000
0010001000000000000000
0018006000000000000000
0004038000000000000000
0003FC0000000000000000
ENDCHAR
STARTCHAR 0049
ENCODING 73
SWIDTH 819 0
DWIDTH 59 0
BBX 74 49 14 -6
BITMAP
00000000000000003FC0
0000000000000003D000
000000000000001C6000
00000000000000E08000
00000000000003010000
0000000001F00C020000
000000001E0C30040000
00000000E003C0080000
00000003000300100000
0000000C000700200000
00000010000D00400000
00000060001900800000
00000080007101840000
0000030000E101040000
0000060001C202040000
00000C00038206040000
00001800030404080000
00003000060408080000
003FEE000C0818100000
01C0C1F8181030100000
06018007F83030600000
080300003C2060800000
3003000063C0C3000000
20060000E0BFFC000000
400C0000C10180000000
800C0001860300000000
80180001880700000000
80100001B00600000000
80300003400C00000000
80200003801C00000000
40600007001800000000
4060001A003000000000
20C000E2006000000000
18C00702006008000000
06C0780200C010000000
01FF8003018020000000
00800003030040000000
00800003060080000000
00800001840100000000
00800001980200000000
00800000F00C00000000
00800000603000000000
00800000DFC000000000
00400001000000000000
00400006000000000000
00200018000000000000
00180060000000000000
00060780000000000000
0001F800000000000000
ENDCHAR
STARTCHAR 004A
ENCODING 74
SWIDTH 527 0
DWIDTH 38 0
BBX 85 69 -25 -27
BITMAP
00000000000000000000F8
0000000000000000003F00
000000000000000003CE00
00000000000000001C1000
0000000000000000E02000
0000000000000003004000
000000000000000C008000
0000000000000030010000
00000000000000C0020000
0000000000000180040000
0000000000000600080000
0000000000000C00100000
0000000000001800200000
0000000000006000200000
000000000000C000400000
0000000000018000800000
0000000000030001800000
000000000006007F000000
0000000000060183000000
00000000000C0605000000
000000000018080C800000
0000000000101008800000
0000000000302010800000
0000000000604030800000
0000000000604020800000
0000000000C08061000000
0000000000C100C1000000
0000000000810081000000
0000000001820182000000
0000000001020302000000
0000000001040604000000
0000000003040604000000
0000000002040C08000000
0000000002001810000000
0000000002001810000000
0000000002003020000000
0000000002006040000000
0000000002006080000000
000000000200C100000000
0000000002018200000000
0000000001018400000000
0000000001030800000000
0000000000C63000000000
00000000002EC000000000
00000000001F0000000000
0000000000180000000000
0000000000380000000000
0000000000300000000000
0000000000602000000000
0000000000C04000000000
0001FF0001818000000000
001E00FFE38E0000000000
00E000001F700000000000
0300000006000000000000
0C00000008000000000000
1000000010000000000000
2000000020000000000000
4000000040000000000000
4000000180000000000000
8000000200000000000000
8000000400000000000000
8000001800000000000000
8000002000000000000000
800000C000000000000000
4000010000000000000000
40000E0000000000000000
2000300000000000000000
1801C00000000000000000
07FE000000000000000000
ENDCHAR
STARTCHAR 004B
ENCODING 75
SWIDTH 805 0
DWIDTH 58 0
BBX 89 49 3 -6
BITMAP
000000000007800000000000
0000000003F87FFFF6000F80
000000001C000003F8003000
00000000E00000004000C000
000000030000000180030000
0000000403E0000F80060000
000000181C18007470180000
000000206004018808300000
000000218004021004E00000
0000004600020C3003C00000
000000580044106003000000
00000020018400C007000000
000000E00204018019000000
000001900C04018031000000
0000020EF0080300C2000000
00000C010008060702000000
0000180000100C3802000000
0000300000200DC004000000
007FEFC00020187004000000
0380E03C0040300808000000
0401C003C080700410000000
180380003D00600420000000
200300000380C00440000000
400600000279C00D80000000
400E00000407F0FA00000000
800C000008030F1800000000
801800003006003000000000
80380000400E006000000000
80300000800C00C000000000
80600003001800C000000000
406000040030018000000000
40C000180060030000000000
30C000600040060000000000
08C0038000800C0000000000
07803C0001800C0000000000
01FFC0000300181800000000
018000000600302000000000
018000000C00204000000000
018000001000608000000000
018000002000410000000000
018000004000C20000000000
018000008000840000000000
018000010000880000000000
008000060000F00000000000
008000080000000000000000
004000300000000000000000
002000C00000000000000000
001007000000000000000000
000FF8000000000000000000
ENDCHAR
STARTCHAR 004C
ENCODING 76
SWIDTH 888 0
DWIDTH 64 0
BBX 68 59 15 -17
BITMAP
0000000000000000C0
000000000000000720
000000000000001810
000000000000002010
000000000000004020
000000000000008020
000000000000010040
00003FFF0000020040
0003C000F800040080
001C00000700080100
0060000000E0100100
018000000018300200
020000000004600400
040000000003400800
080000000000C01000
100000000001C02000
200000000001A04000
200000000003208000
400001000006110000
4000020000060E0000
40000400000C080000
400008000018140000
400010000018240000
400010000030C40000
200010000071040000
200020000066040000
1000200000D8040000
0800200000E0040000
040020000180080000
030020000780080000
00C010001B00080000
00301001E600100000
000F083E0C00100000
0000FFC00C00200000
000004001800400000
000002003000800000
000001806001000000
00000060C006000000
0000001D8078000000
000000037F80000000
000000060000000000
1FF000080000000000
600E00100000000000
800380600000000000
800061800000000000
40003E000000000000
30003C000000000000
0FFFC7000000000000
000003800000000000
000000C00000000000
000000700000000000
000000380000000000
0000000E0000000000
000000070000000000
00000001C000000000
000000007000000000
000000001C00400000
000000000381800000
00000000007E000000
ENDCHAR
STARTCHAR 004D
ENCODING 77
SWIDTH 958 0
DWIDTH 69 0
BBX 90 49 5 -6
BITMAP
000000000000000000400000
0000000000000000018000C0
000000000000000007000180
000000000000000009000700
000000000000000012000A00
000000000000000022001400
0000000007F8000044002400
00000000380400008400C800
00000000C0027E0108011000
00000003000381C208022000
0000000C000E003410046000
00000010003200081018C000
0000006000C4001820208000
000000800104002420410000
000001000604004440830000
000002000008008443060000
00000C0000080104C40C0000
000018000010020888080000
003FFE000010041190180000
01C061FC0020081160300000
0600C003E040086380600000
180180001F80108300C00000
20010000017F2F0601C00000
400300000200D00E01800000
800600000400803C03000000
800C0000080100CC06000000
80180000100201180E000000
80180000600406101C000000
803000008008083018000000
802000030010102030000000
4060000C0030204070000000
2040003000604040E0000000
104001C000C08081C0000000
0C800E000181010180800000
03C3F0000302010381000000
00BC00000604020302000000
018000000C04040604000000
010000001808080E08000000
010000003008100C10000000
010000006010200820000000
010000008010400840000000
010000010010801080000000
010000040011000B00000000
00800008000E000400000000
008000300000000000000000
004000C00000000000000000
002003000000000000000000
00183C000000000000000000
0007C0000000000000000000
ENDCHAR
STARTCHAR 004E
ENCODING 78
SWIDTH 944 0
DWIDTH 68 0
BBX 93 50 11 -6
BITMAP
0000000000000000000001E0
000000000000000000000610
000000000000000000001808
000000000000000020006010
0000000000000000E0008000
000000000000000140010000
0000000000E0000240060000
000000000F1C000480080000
000000007002000880100000
000000018007FF1080200000
00000002001A00D080400000
0000000C0062002100800000
000000300082005101000000
000000400102009102000000
000000800604009104000000
000001000804011308000000
000006000008022210000000
00000C000008042210000000
000018000010044620000000
007FFC000010084640000000
038063C00020108680000000
0C00C03C0040230700000000
10018003E0802C0E00000000
200300001F80700C00000000
40030000017F800800000000
400600000201801800000000
800C00000C03002800000000
800C00001002005000000000
801800002004009000000000
40100000C008009000000000
403000030018012000000000
2020000C0030022000000000
106000300060044000000000
084001C00040044000000000
07C01E000080084000000000
00BFE0000100108000000000
008000000200108000000000
008000000400210000000000
018000000800410000000000
018000001000420000000000
018000002000820000000000
008000004000840000000000
008000018000880000000000
008000020000900000000000
0080000C0000600000000000
004000100000000000000000
004000600000000000000000
003001800000000000000000
00081E000000000000000000
0007E0000000000000000000
ENDCHAR
STARTCHAR 004F
ENCODING 79
SWIDTH 666 0
DWIDTH 48 0
BBX 51 49 11 -6
BITMAP
00000000001FC0
0000003FF06020
000000C00D8020
00000300020020
000004000D0060
00000800110060
000010002100A0
00002000C08120
00004001808220
00004003008C20
0000800600B040
0000800C01C040
000100181E8040
00010030E08080
0000006F010080
000003D0010100
00003CC0010100
0001C180020200
00060300020200
00180600020400
00600C00040400
01800C00040800
02001800081800
04003000081000
08007000102000
10006000106000
2000C00020C000
2000C000408000
40018000810000
40010000830000
80030001060000
80020002040000
8006000C080000
80040010100000
80040020300000
400C00C0200000
40080300400000
20081C00800000
1818E001000000
07FF0002000000
00100004000000
00100008000000
00100010000000
00100060000000
00100080000000
00100100000000
00100600000000
000C1800000000
0003E000000000
ENDCHAR
STARTCHAR 0050
ENCODING 80
SWIDTH 611 0
DWIDTH 44 0
BBX 61 50 11 -4
BITMAP
00000000000FFE00
0000000001F00180
000000000E000060
0000000070000020
00001FF980000010
0000E00E00000010
0003001200000018
000C004100000018
0010018100003C18
0060030100004218
00800C0080018418
0100180080020410
0200300080020830
0400600080040820
0800C00100081060
1003800100102040
1006000100204080
200C000200208100
2018000200410200
4010000400820C00
4030000401841000
4060000801086000
40C0001002118000
41800020062E0000
810000000CC00000
8200000009000000
460000001E000000
4400000038000000
4800000070000000
48000000E0000000
30000001C0000000
3000000780000000
3000000B00000000
2800007600000000
4600018600000000
41800E0C00000000
407FF01800000000
4000003000000000
4000006000000000
4000004000000000
4000008000000000
4000010000000000
4000020000000000
4000040000000000
4000180000000000
2000200000000000
1000400000000000
0801800000000000
0606000000000000
01F8000000000000
ENDCHAR
STARTCHAR 0051
ENCODING 81
SWIDTH 736 0
DWIDTH 53 0
BBX 53 63 16 -20
BITMAP
000000000001F0
00000000000608
00000000001808
00000000006008
0000001FF98008
000000E0060010
000007000D8010
00000800184020
00003000204020
0000C000C02040
00010001802080
00020003001100
00040006001100
0008000C001200
00100018001400
00200030000800
00400060801000
004000C1003000
00800181005000
01000302009000
01000602012000
02000C04022000
02001808042000
04003808084000
04003010104000
0400602020C000
0800C040408000
0801C040818000
08018081010000
08030302020000
0403040C060000
04060810040000
020C30200C0000
020CC0C0180000
019B0100300000
007C0200200000
00180C00400000
00301000C00000
00306001800000
00318002000000
00220004000000
002C0008000000
00300030000000
00E00060000000
01200080000000
06200200000000
18200C00000000
20103000000000
DF0FC000000000
00E00000000000
00300000000000
000C0000000000
00060000000000
00030000000000
0001C000000000
0000E000000000
00007000000000
00001800000000
00000C00000000
00000700020000
00000180040000
00000060180000
0000001FE00000
ENDCHAR
STARTCHAR 0052
ENCODING 82
SWIDTH 763 0
DWIDTH 55 0
BBX 61 61 9 -14
BITMAP
00000000001FFE00
0000000001E00180
000000001E000040
0000000060000020
00001FF380000030
0000E00C00000010
0003003200000010
000C004200000018
0010018100003C18
006002010000C410
00800C0100010410
0100180080020410
0200300080040820
0400C00100081020
0801800100081040
1003000100102080
2006000100204100
200C000200408200
2018000200410400
4030000400820800
4060000801043000
4040001003084000
8080001002118000
81800060047E0000
830000000C900000
8200000019080000
8400000036080000
8C00000038040000
4800000060040000
50000000C0040000
50000001C0040000
2000000780040000
3000001B00040000
48000066000C0000
4400018C000C0000
43000E0800080000
40F9F01800080000
8006003000180000
8000006000180000
800000C000180000
8000018000300000
8000030000300000
4000060000300000
4000080000300000
4000100000200000
2000200000200000
2000C00000200000
1801000000200000
060E000000600000
01F0000000600000
0000000000200000
0000000000200000
0000000000200000
0000000000200000
0000000000200000
0000000000300020
0000000000100040
0000000000080080
0000000000080100
0000000000070E00
000000000000F000
ENDCHAR
STARTCHAR 0053
ENCODING 83
SWIDTH 833 0
DWIDTH 60 0
BBX 70 50 12 -4
BITMAP
000000000000000018
000000000000000064
000000000000000084
007F80000000000108
018070000000000208
020008000000000210
040000000000000410
080000000000000820
08000000FF80000840
080000070060001040
100000180010001080
1007FE600008002100
103801800008002200
10C002600004004400
11000C100004004800
160018080004009000
18003004000400E000
100060040004018000
2800C0020004010000
2800C0020008070000
4401800200080A0000
440300020008360000
420700020010C60000
8186000000130C0000
804C0000002C0C0000
803C00000070180000
801C000007C0180000
801B8000F840300000
40107FFF0080300000
403000000100600000
403000000200600000
203000000400C00000
202000000800C00000
102000001001800000
082000006001000000
042000008003000000
022000030006000000
01A0000C000C000000
006000700008000000
003FFF800010000000
002000000020000000
001000000040000000
001000000080000000
000800000100000000
000800000400000000
000400001800000000
000200006000000000
000180018000000000
0000701E0000000000
00000FE00000000000
ENDCHAR
STARTCHAR 0054
ENCODING 84
SWIDTH 722 0
DWIDTH 52 0
BBX 80 52 3 -7
BITMAP
0000000000000000003E
000000000003C00000C1
0000000001FC1FE00301
000000001E00007F8401
0000000060000007F806
00000001800000003FFC
00000006000000006000
0000001800000000C000
00000020000000018000
000000C0000000030000
00000100000000060000
000002000078000C0000
00000400018400080000
00000800060200100000
00001000180200200000
00002000200200400000
00004000400200800000
00008000800401000000
00008001000403000000
00010002000406000000
0001000400080C000000
00020008000808000000
00020010001018000000
00040010002030000000
00040020002060000000
000400400040C0000000
000800400081C0000000
00080080010180000000
00080080010300000000
00080080020600000000
000801000C0E00000000
04080100101C00000000
08080100203800000000
10040200403000000000
20040201807000000000
4002020600E000000000
4001021801C000000000
8000F3E0038000000000
80000E00070000000000
800002000E0000000000
800002000C0000000000
80000200100000000000
80000200600000000000
80000100C00000000000
40000101800000000000
40000082000000000000
2000008C000000000000
10000050000000000000
0C0000E0008000000000
03000710030000000000
00FFF80E1C0000000000
00000001E00000000000
ENDCHAR
STARTCHAR 0055
ENCODING 85
SWIDTH 777 0
DWIDTH 56 0
BBX 60 62 13 -17
BITMAP
0000000078000000
0000000F87000000
0000007000C00000
0000018000200000
0000060000200000
0000180000100000
0000600000100000
0001800000100000
0003000000100020
0004001FC01000D0
001800E040100310
0030030020200420
0060040020200820
00C0180040600840
0180200040401080
0300400040802080
0600800081804100
0401000083008200
0C02000F82008200
1804003144010400
100800C22C020800
3008010418021000
2010060830041000
2020080870082000
40401010D0184000
4040002190108000
4080004320310000
8080008620610000
8100010C20620000
8100021840C40000
82000C3040880000
8200106081900000
440060C083200000
440080C103200000
2403018206400000
181C030206800000
0FE002040D000000
080006080E000000
08000C101C000000
0800081018000000
0800082038000000
1000104030000000
1000108070000000
08001100E0000000
0800220160000000
0800240260000000
0400380C60000000
0400201040000000
0301D060C0000000
00FE0F80C0000000
00000000C0000000
00000000C0000000
0000000080000000
0000000080000800
0000000080001000
0000000040002000
0000000040004000
0000000040008000
0000000020010000
00000000100E0000
000000000F700000
0000000000800000
ENDCHAR
STARTCHAR 0056
ENCODING 86
SWIDTH 638 0
DWIDTH 46 0
BBX 72 50 13 -4
BITMAP
0000003F8001E00008
000003C070062000F7
00001C000C18200301
000060000260200401
000180000180401801
000600000180402001
001C00000280804002
003000000483008004
006000000884010004
00C007801848020000
018018603050040000
030060102060080000
060080104180100000
0C030010C680200000
08040010B880400000
18040011C100800000
100800170101000000
3000003B0202000000
200000D70204000000
600003260408000000
40000C460410000000
4000104C0820000000
4000208C0840000000
8000C11C1080000000
800101182100000000
800102184200000000
800204308400000000
400408308800000000
400810711000000000
400860662000000000
200880684000000000
101300F08000000000
0E1C00E10000000000
01F000C20000000000
000803840000000000
00041D880000000000
0003E1100000000000
000003200000000000
000002400000000000
000006800000000000
000005000000000000
00000A000000000000
00000E000000000000
00001C000000000000
000028000000000000
000030000000000000
000060000000000000
0000C0000000000000
000080000000000000
000100000000000000
ENDCHAR
STARTCHAR 0057
ENCODING 87
SWIDTH 1013 0
DWIDTH 73 0
BBX 84 50 28 -4
BITMAP
0000003F8001E000000080
000003C070062000000F70
00001C000C182000003010
0000E00002602000004010
0003800001804000008010
0006000001008000030010
001C000002818000040020
0030000004820000080020
0060000008840000100040
00C0078010880000200000
0180186030B03800400000
030060202040C400800000
0601801041810401000000
0C020010C6820402000000
08040010B8840804000000
18080011C1080808000000
1008001F01101010000000
2000003302102020000000
200000E702204040000000
4000032604208080000000
40000C4E04410100000000
4000104C08C20200000000
8000208C10840400000000
8000C11C11880800000000
8001021821301000000000
8002023843402000000000
8002043082804000000000
8004083107008000000000
4008107204010000000000
400860640C020000000000
201080680C040000000000
101300D038080000000000
0E1C00E058100000000000
01F000C090300000000000
0008038110600000000000
00041D8220C00000000000
0003E10420800000000000
0000030821000000000000
0000021042000000000000
0000046044000000000000
0000048088000000000000
0000090090000000000000
00000A0120000000000000
0000140140000000000000
0000280280000000000000
0000300300000000000000
0000600600000000000000
0000C00C00000000000000
0001800800000000000000
0000001000000000000000
ENDCHAR
STARTCHAR 0058
ENCODING 88
SWIDTH 819 0
DWIDTH 59 0
BBX 81 50 13 -5
BITMAP
0000000001FF8000003F00
000000000E00400000C100
0000000070002000030080
0000000180001000040000
0000000600001000180000
0000001800000800200000
0000002000000800400000
000000C000000801800000
0000010001C01802000000
000002000E201804000000
00000C0030101808000000
00001800C0101010000000
0000300300103060000000
0000600400103080000000
0000C00800203100000000
0000801000206200000000
0001002000406400000000
0002004000404800000000
000600800080F000000000
000401000100C000000000
0008020001018000000000
0008040002018000000000
0010080004030000000000
00101000080F0000000000
0020100010160000000000
0020200020260000000000
00204000404E0000000000
00204000808C0000000000
00208001010C0000000000
0021000202180000000000
0021000404180000000000
0022001818300000000000
0022002020300000000000
001200C040300000000000
000C010080600800000000
00040E0100601000000000
0007F00600402000000000
0008000810404000000000
0388001020808000000000
0C08002040808000000000
300800C040810000000000
4008010080820000000000
40080201008C0000000000
80080C0200500000000000
8004100400200000000000
8004601800000000000000
4005802000000000000000
2006004000000000000000
1879838000000000000000
07807C0000000000000000
ENDCHAR
STARTCHAR 0059
ENCODING 89
SWIDTH 777 0
DWIDTH 56 0
BBX 67 69 7 -24
BITMAP
0000000007FE000000
000000003801800000
00000001C000400000
000000060000200000
000000180000200000
000000200000200000
000000C00000200000
000001000000200000
0000060003802000E0
00000C001C40200120
00001800E020200320
000030030020200240
000060040020400440
0000C0180040400880
000180200040801080
000300400041801100
000600800081002200
000601000283004400
000C02003D46004400
00080400C22C008800
001804010418011000
003008060430012000
003010080870022000
0020200810D0044000
006020002190048000
004040004390090000
004040008710120000
004080010620140000
004080060C20280000
008100081820280000
004100103040500000
004100606040A00000
004200804080C00000
002203008081800000
00120C018101000000
000E70010202000000
000580020406000000
00040002081C000000
000400040824000000
000200043048000000
000200044188000000
000200048210000000
000200050C10000000
000100027020000000
0000800D8020000000
000060700040000000
00001F800040000000
000000000080000000
000000000080200000
000000000100400000
0001FFF00301800000
001E000FFE3E000000
00E0000007C0000000
030000000C00000000
040000001800000000
080000003000000000
300000006000000000
20000000C000000000
400000018000000000
400000030000000000
800000040000000000
800000080000000000
800000200000000000
400000C00000000000
400003000000000000
20000C000000000000
180030000000000000
0603C0000000000000
01FC00000000000000
ENDCHAR
STARTCHAR 005A
ENCODING 90
SWIDTH 736 0
DWIDTH 53 0
BBX 57 51 15 -8
BITMAP
0000001FE0000080
00000FE7FF800700
0000700001FFF800
0003800000001000
0004000000006000
0018000000008000
0060000001C30000
008001FC0E3C0000
01000602000C0000
0200180200140000
0400200200220000
0800400200420000
1000800400820000
1001000401010000
2002000402010000
4004000804010000
4008000808010000
4010001010010000
8010002020020000
8020004040020000
8020004080020000
8040008100020000
8040010200040000
8080020400040000
80800C0800080000
8080101000080000
8080602000100000
8080804000200000
4083008000200000
309C010000400000
0FE0020000800000
0080040001000000
0080080002000000
0040100004000000
0040200018000000
0020C00020000000
00110000C0000000
000A000300000000
0004001C00000000
000BFFE000000000
0010000000000000
0060000000000000
0080000000000000
037FE00000000000
0C001C0000000000
0000060000000000
0000038000000000
000000E000400000
0000007C01800000
0000001FFE000000
00000003E0000000
ENDCHAR
STARTCHAR 005B
ENCODING 91
SWIDTH 347 0
DWIDTH 25 0
BBX 29 62 15 -18
BITMAP
000007F8
00000FF8
00000E00
00000E00
00001C00
00001C00
00001800
00003800
00003800
00003000
00007000
00007000
00006000
0000E000
0000E000
0001C000
0001C000
00018000
00038000
00038000
00030000
00070000
00070000
00060000
000E0000
000E0000
000C0000
001C0000
00180000
00180000
00380000
00300000
00700000
00700000
00600000
00E00000
00E00000
00C00000
01C00000
01800000
01800000
03800000
03000000
03000000
07000000
06000000
06000000
0E000000
0C000000
0C000000
18000000
18000000
38000000
30000000
30000000
70000000
60000000
60000000
E0000000
C0000000
C0000000
3C000000
ENDCHAR
STARTCHAR 005C
ENCODING 92
SWIDTH 777 0
DWIDTH 56 0
BBX 25 44 30 0
BITMAP
80000000
C0000000
40000000
60000000
30000000
30000000
18000000
08000000
0C000000
04000000
06000000
02000000
03000000
01800000
01800000
00C00000
00C00000
00600000
00200000
00300000
00100000
00180000
00080000
000C0000
00060000
00060000
00030000
00030000
00018000
00008000
0000C000
00004000
00006000
00002000
00003000
00001800
00001800
00000C00
00000C00
00000600
00000200
00000300
00000100
00000180
ENDCHAR
STARTCHAR 005D
ENCODING 93
SWIDTH 347 0
DWIDTH 25 0
BBX 28 62 10 -18
BITMAP
00000FF0
00000FF0
00000020
00000060
00000060
000000C0
000000C0
000000C0
00000180
00000180
00000180
00000300
00000300
00000200
00000600
00000600
00000400
00000C00
00000C00
00001800
00001800
00001800
00003000
00003000
00003000
00006000
00006000
00006000
0000C000
0000C000
00018000
00018000
00018000
00030000
00030000
00030000
00060000
00060000
00060000
000C0000
000C0000
000C0000
00180000
00180000
00300000
00300000
00300000
00600000
00600000
00600000
00C00000
00C00000
00C00000
01800000
01800000
03800000
03000000
03000000
07000000
06000000
06000000
F8000000
ENDCHAR
STARTCHAR 005E
ENCODING 94
SWIDTH 361 0
DWIDTH 26 0
BBX 9 7 14 24
BITMAP
0180
0380
0780
1980
2080
C080
0080
ENDCHAR
STARTCHAR 005F
ENCODING 95
SWIDTH 375 0
DWIDTH 27 0
BBX 36 1 0 -9
BITMAP
FFFFFFFFF0
ENDCHAR
STARTCHAR 0060
ENCODING 96
SWIDTH 152 0
DWIDTH 11 0
BBX 6 5 5 24
BITMAP
C0
E0
70
18
04
ENDCHAR
STARTCHAR 0061
ENCODING 97
SWIDTH 222 0
DWIDTH 16 0
BBX 23 20 -1 1
BITMAP
000060
0001E0
0003A4
000418
001838
002030
004060
0080C0
010180
020180
040302
080604
100C08
101C10
203820
405040
40A080
832300
442400
781800
ENDCHAR
STARTCHAR 0062
ENCODING 98
SWIDTH 194 0
DWIDTH 14 0
BBX 38 45 -3 0
BITMAP
0000000018
0000000024
00000000C8
0000000108
0000000210
0000000420
0000000820
0000001040
007FE01080
0380102100
0C00004200
3000008400
4000009800
4000012000
8000024000
8000058000
80000E0000
4000080000
4000300000
2001E00000
1C1E600000
03E0400000
0000800000
0001800000
0003000000
0002380000
0004480000
000C880000
0009100000
0011100000
0032200000
0064400000
0044400000
0084800000
0189000000
010A180000
020C200000
020C400000
040B800000
0810000000
0820000000
1040000000
1080000000
0B00000000
0400000000
ENDCHAR
STARTCHAR 0063
ENCODING 99
SWIDTH 166 0
DWIDTH 12 0
BBX 17 19 1 0
BITMAP
000300
000E80
001880
006100
00C000
018000
030000
060000
0C0000
180000
300300
200400
400800
401000
802000
804000
818000
6E0000
780000
ENDCHAR
STARTCHAR 0064
ENCODING 100
SWIDTH 222 0
DWIDTH 16 0
BBX 33 44 -1 0
BITMAP
0000000E00
0000007100
0000008080
0000010080
0000060080
00000C0080
0000080080
0000100080
0000200100
0000200100
0000400100
0000400200
0000800200
0000800400
0001000C00
0001000800
0000001800
0000001000
0000002000
0000006000
0000004000
0000008000
0000018000
0000030000
0000E20000
0003140000
00041C0000
0018180000
0030100000
0060200000
00C0400000
0180C00000
0300800000
0601000000
0C02000000
0804000000
1008000000
3010000000
2060000000
4080000000
4100000000
8200000000
8C00000000
5000000000
ENDCHAR
STARTCHAR 0065
ENCODING 101
SWIDTH 180 0
DWIDTH 13 0
BBX 17 22 1 -3
BITMAP
000100
000780
001C80
003100
006100
00C200
018C00
031000
066000
0D8000
1E0000
100000
300180
200200
400400
400800
801000
802000
804000
818000
420000
3C0000
ENDCHAR
STARTCHAR 0066
ENCODING 102
SWIDTH 138 0
DWIDTH 10 0
BBX 54 67 -20 -24
BITMAP
0000000000001C
00000000000064
00000000000088
00000000000108
00000000000210
00000000000420
00000000000820
00000000001040
000000FFF01080
00000700002100
00001800004200
00002000008C00
00004000009000
00004000012000
00008000024000
00008000058000
000080000A0000
000040000C0000
00002000300000
00001001E00000
00000E7E600000
00000180C00000
00000000800000
00000003800000
0000001F800000
00000022800000
00000044800000
0000000C800000
00000018800000
00000011000000
00000031000000
00000062000000
00000042000000
00000084000000
00000188000000
00000310000000
00000220000000
00000640000000
00000C80000000
00000900000000
00001A00000000
00003400000000
00006800000000
00005000000000
0000E000000000
0001C000000000
00018000000000
00030000000000
00060000000000
000C0000000000
00080000000000
00100000000000
00300000000000
00200000000000
00400000000000
00800000000000
01800000000000
01000000000000
02000000000000
04000000000000
04000000000000
08000000000000
10000000000000
20000000000000
20000000000000
40000000000000
80000000000000
ENDCHAR
STARTCHAR 0067
ENCODING 103
SWIDTH 222 0
DWIDTH 16 0
BBX 38 44 -16 -24
BITMAP
0000000078
0000000184
0000000604
0000001808
0000003008
0000006050
000001C080
0000030100
0000060300
00000E0600
00000C0418
0000180810
0000301020
0000202040
0000606080
000040C100
0000814200
0000828400
00008C8800
0000711000
0000022000
000002C000
0000050000
0000060000
00000C0000
0000080000
0000300000
0000500000
0001A00000
0002200000
000C400000
0010C00000
0060800000
0081000000
0302000000
0404000000
1808000000
2008000000
4030000000
4040000000
8080000000
8100000000
4600000000
3800000000
ENDCHAR
STARTCHAR 0068
ENCODING 104
SWIDTH 222 0
DWIDTH 16 0
BBX 38 43 -4 0
BITMAP
000000003C
0000000044
0000000088
0000000308
0000000410
0000000820
0000001040
001F801080
01E0702100
0E00004200
1000008400
2000010800
4000011000
8000026000
8000048000
8000050000
80000E0000
4000180000
2000F00000
1807200000
07F8600000
0000400000
0000800000
00018E0000
0003320000
0002C20000
0005020000
000E040000
001C040000
0018080000
0030100000
0060300000
0040604000
0080C08000
0100810000
0301020000
0202040000
0406080000
0804100000
1808200000
1010400000
2011800000
000E000000
ENDCHAR
STARTCHAR 0069
ENCODING 105
SWIDTH 97 0
DWIDTH 7 0
BBX 18 27 0 1
BITMAP
0000C0
0000C0
000080
000000
000000
000000
000000
003000
002000
004000
00C000
018000
010000
020000
060000
040800
081000
182000
102000
204000
408000
410000
810000
860000
8C0000
B00000
600000
ENDCHAR
STARTCHAR 006A
ENCODING 106
SWIDTH 125 0
DWIDTH 9 0
BBX 45 51 -25 -23
BITMAP
000000000018
000000000030
000000000030
000000000000
000000000180
000000000640
000000001840
000000002040
000000004640
000000000C80
000000001C80
000000003100
000000006200
000000006400
00000000C400
000000018800
000000031000
000000022000
000000044000
000000088000
000000110000
000000120000
000000240000
000000480000
000000900000
000000A00000
000001400000
000001800000
000002000000
000004000000
00001C000000
000024000000
0000C8000000
000118000000
000610000000
000830000000
003020000000
004060000000
0080C0000000
010080000000
020100000000
040300000000
080600000000
100C00000000
200800000000
401000000000
402000000000
80C000000000
810000000000
860000000000
780000000000
ENDCHAR
STARTCHAR 006B
ENCODING 107
SWIDTH 222 0
DWIDTH 16 0
BBX 37 44 -2 0
BITMAP
0000000038
0000000048
0000000188
0000000208
0000000410
0000000820
0000001040
0000002080
0000004100
0000008200
0000008400
0000010800
0000021000
0000046000
0000048000
0000090000
0000160000
0000180000
0000200000
0001C00000
0002C00000
000C800000
0011000000
0022000000
0046070000
0084190000
0088220000
0118400000
0130800000
0221000000
0242000000
02CC600000
0196800000
0103010000
0383020000
067E040000
0406080000
080C100000
1008200000
3010400000
2030800000
4021000000
8022000000
003C000000
ENDCHAR
STARTCHAR 006C
ENCODING 108
SWIDTH 97 0
DWIDTH 7 0
BBX 37 44 -3 1
BITMAP
0000000038
0000000048
0000000088
0000000110
0000000210
0000000420
0000000840
0000001080
01FFF82100
0600004200
1800008400
2000008800
4000011000
8000026000
8000048000
8000050000
80000E0000
4000100000
4000700000
3007A00000
0FF8400000
0000800000
0001800000
0001000000
0002000000
0006000000
000C000000
0008000000
0010000000
0030000000
0060000000
0040000000
0081000000
0182000000
0102000000
0204000000
0408000000
0408000000
0810000000
0820000000
1040000000
1080000000
0F00000000
0C00000000
ENDCHAR
STARTCHAR 006D
ENCODING 109
SWIDTH 416 0
DWIDTH 30 0
BBX 32 22 5 -3
BITMAP
00600000
01E07038
03A190EC
06231184
0C241204
08281408
10302818
20607030
40C0E020
8080C060
818180C1
03030182
06020304
04060608
080C0C08
18181810
10101020
20302040
60602180
C0404200
80804400
00003800
ENDCHAR
STARTCHAR 006E
ENCODING 110
SWIDTH 305 0
DWIDTH 22 0
BBX 22 22 5 -3
BITMAP
006000
01E078
03A0C8
062308
0C2608
082810
105010
206020
40C040
808080
010180
030304
060604
040C08
0C1810
181020
302040
206080
604100
C04200
804C00
003000
ENDCHAR
STARTCHAR 006F
ENCODING 111
SWIDTH 208 0
DWIDTH 15 0
BBX 19 19 1 0
BITMAP
0001C0
0007E0
001C20
003020
00E040
01C080
038080
048100
090200
110400
210860
411080
412300
80CC00
80B000
810000
860000
F80000
400000
ENDCHAR
STARTCHAR 0070
ENCODING 112
SWIDTH 208 0
DWIDTH 15 0
BBX 53 48 -34 -25
BITMAP
000000000001F0
00000000000208
00000000000C08
00000000001048
00000000002188
00000000004608
00000000000810
00000000001010
00000000002020
00000000004060
00000000008040
000000000100C0
00000000030180
00000000020100
00000000040200
000000000C0600
00000000080C00
00000000101800
00000000302000
00000000204000
00000000608000
00000000E30000
000000009C0000
00000001800000
00000003000000
00000002000000
00000006000000
0000000C000000
00000008000000
00000018000000
00000030000000
00000020000000
00000040000000
000000C0000000
00000080000000
00000100000000
00000200000000
00000200000000
00000400000000
00000800000000
00001000000000
00002000000000
0000C000000000
00010000000000
80060000000000
40180000000000
30E00000000000
0F000000000000
ENDCHAR
STARTCHAR 0071
ENCODING 113
SWIDTH 222 0
DWIDTH 16 0
BBX 32 43 -10 -25
BITMAP
0000003F
000000F1
00000181
00000701
00000C09
0000181A
00003010
00006020
0000C1C0
000186E0
000308A0
00063120
00040220
00080640
00080C40
00101880
00103880
0020B100
00212200
001E4400
0000C800
00019000
00012000
00034000
00068000
00050000
000A0000
001C0000
00380000
00300000
00600000
00C00000
00800000
01000000
03000000
06000000
04000000
08000000
10000000
10000000
20000000
40000000
80000000
ENDCHAR
STARTCHAR 0072
ENCODING 114
SWIDTH 194 0
DWIDTH 14 0
BBX 14 26 5 1
BITMAP
0010
0020
0060
00C0
0080
0100
0100
0200
05F0
0818
1010
2030
2060
40C0
8180
0300
0604
0C08
1810
1020
2040
4080
4100
8200
8400
F800
ENDCHAR
STARTCHAR 0073
ENCODING 115
SWIDTH 222 0
DWIDTH 16 0
BBX 21 28 2 1
BITMAP
000008
000018
000030
000060
000040
0000C0
000080
000100
000200
000600
000A00
001200
002200
002200
03C600
0CC600
114400
204400
204C00
404C00
409800
811800
823000
802000
806000
80C000
430000
7E0000
ENDCHAR
STARTCHAR 0074
ENCODING 116
SWIDTH 97 0
DWIDTH 7 0
BBX 21 33 0 1
BITMAP
000008
000018
000010
000020
000060
0000C0
000080
000100
000300
000200
000400
000C00
001800
007400
002000
006000
004000
008000
010000
010000
020000
040000
081000
081000
102000
204000
204000
408000
410000
820000
840000
F80000
600000
ENDCHAR
STARTCHAR 0075
ENCODING 117
SWIDTH 305 0
DWIDTH 22 0
BBX 22 22 5 -1
BITMAP
001000
00E804
01080C
020818
041010
083020
106060
20C0C0
418080
830100
020300
04060C
0C0408
180810
301820
203040
40D080
412100
822200
842400
581800
200000
ENDCHAR
STARTCHAR 0076
ENCODING 118
SWIDTH 291 0
DWIDTH 21 0
BBX 22 19 5 0
BITMAP
002030
00F0F0
031190
041320
082220
104440
208840
410880
831104
061208
0C2410
182860
101080
202B00
404400
408000
430000
6C0000
100000
ENDCHAR
STARTCHAR 0077
ENCODING 119
SWIDTH 402 0
DWIDTH 29 0
BBX 29 22 5 -1
BITMAP
00100000
00E80438
01080C48
02081890
0C101110
08302220
10606220
20C0C440
41808440
83010480
06030880
04060908
08040A10
18080A20
30180C40
20300880
40503700
41A04000
82208000
84230000
581C0000
20000000
ENDCHAR
STARTCHAR 0078
ENCODING 120
SWIDTH 291 0
DWIDTH 21 0
BBX 29 22 0 -3
BITMAP
00006000
0000E038
0001A068
00022188
00042318
00082630
00102400
00204800
00F07000
03484000
0408C000
08108000
10218040
20470080
40090100
40120200
80220400
80420800
80841000
81046000
46048000
38030000
ENDCHAR
STARTCHAR 0079
ENCODING 121
SWIDTH 291 0
DWIDTH 21 0
BBX 37 45 -11 -27
BITMAP
0000002000
000000D008
0000020810
0000041030
0000081060
00001020C0
00002040C0
0000408180
0000818300
0001030200
0001060400
00000C0C10
0000180810
0000301020
0000202040
0000404080
0000C0C100
0000818200
0000828400
00008D0800
0000711000
0000022000
000002C000
0000050000
0000060000
0000080000
0000180000
0000700000
0001A00000
0002200000
000C400000
0010800000
0061800000
0081000000
0102000000
0604000000
0808000000
1010000000
2020000000
4040000000
4080000000
8300000000
8400000000
5800000000
2000000000
ENDCHAR
STARTCHAR 007A
ENCODING 122
SWIDTH 208 0
DWIDTH 15 0
BBX 38 46 -17 -27
BITMAP
00000000E0
00000003F0
0000000710
0000000C10
0000001810
0000003020
0000004020
0000008040
0000008040
0000010080
0000020100
0000000304
0000000608
0000000810
0000003020
000000C040
0000030080
00000D0100
0000008200
0000004400
0000004800
0000005000
0000006000
0000004000
000001C000
0000028000
00000C8000
0000108000
0000610000
0001820000
0002020000
000C040000
0010080000
0060100000
0080100000
0300200000
0400400000
0801800000
1002000000
2004000000
4008000000
8030000000
8040000000
8180000000
8600000000
7800000000
ENDCHAR
STARTCHAR 007B
ENCODING 123
SWIDTH 291 0
DWIDTH 21 0
BBX 18 63 4 -19
BITMAP
0003C0
000F80
001800
003000
002000
006000
006000
00C000
00C000
00C000
00C000
00C000
00C000
00C000
00C000
00C000
00C000
00C000
00C000
00C000
00C000
00C000
00C000
00C000
00C000
018000
018000
018000
030000
060000
380000
E00000
F00000
1C0000
060000
030000
018000
018000
018000
00C000
00C000
00C000
00C000
00C000
00C000
00C000
00C000
00C000
00C000
00C000
00C000
00C000
00C000
00C000
00C000
00C000
006000
006000
006000
003000
001000
000C00
0003C0
ENDCHAR
STARTCHAR 007C
ENCODING 124
SWIDTH 125 0
DWIDTH 9 0
BBX 1 57 6 -13
BITMAP
80
80
80
80
80
80
80
80
80
80
80
80
80
80
80
80
80
80
80
80
80
80
80
80
80
80
80
80
80
80
80
80
80
80
80
80
80
80
80
80
80
80
80
80
80
80
80
80
80
80
80
80
80
80
80
80
80
ENDCHAR
STARTCHAR 007D
ENCODING 125
SWIDTH 291 0
DWIDTH 21 0
BBX 18 63 4 -19
BITMAP
F00000
7C0000
060000
030000
010000
018000
018000
01C000
00C000
00C000
00C000
00C000
00C000
00C000
00C000
00C000
00C000
00C000
00C000
00C000
00C000
00C000
00C000
00C000
00C000
006000
006000
006000
003000
001800
000F00
0001C0
0003C0
000E00
001800
003000
006000
006000
006000
00C000
00C000
00C000
00C000
00C000
00C000
00C000
00C000
00C000
00C000
00C000
00C000
00C000
00C000
00C000
00C000
00C000
018000
018000
018000
030000
020000
0C0000
F00000
ENDCHAR
STARTCHAR 007E
ENCODING 126
SWIDTH 402 0
DWIDTH 29 0
BBX 11 3 15 23
BITMAP
7C00
8720
01C0
ENDCHAR
STARTCHAR 00A0
ENCODING 160
SWIDTH 472 0
DWIDTH 34 0
BBX 0 0 0 0
BITMAP
ENDCHAR
STARTCHAR 00A2
ENCODING 162
SWIDTH 166 0
DWIDTH 12 0
BBX 17 23 1 -2
BITMAP
000100
000200
000380
000C80
003580
004B00
009000
011000
022000
062000
0C4000
184000
108300
208400
610400
420800
421000
846000
848000
890000
4E0000
300000
100000
ENDCHAR
STARTCHAR 00A3
ENCODING 163
SWIDTH 444 0
DWIDTH 32 0
BBX 40 29 -3 -3
BITMAP
0000000018
0000000066
0000000182
0000000201
0000000401
0000000801
0000001002
0000001002
0000002302
0000004402
000000C804
0000009004
0000012008
0000032010
0000064110
0000044620
001FFF9840
00601BE080
0180188100
0100308200
0100608C00
0100407000
0000800000
0001000000
0002000000
7FE4000000
803C000000
8037008000
7FC0FF0000
ENDCHAR
STARTCHAR 00A8
ENCODING 168
SWIDTH 402 0
DWIDTH 29 0
BBX 10 3 15 22
BITMAP
6040
E0C0
C0C0
ENDCHAR
STARTCHAR 00AB
ENCODING 171
SWIDTH 277 0
DWIDTH 20 0
BBX 15 10 12 17
BITMAP
0082
0104
0208
0C30
71C0
C300
6180
2080
2080
1040
ENDCHAR
STARTCHAR 00B4
ENCODING 180
SWIDTH 319 0
DWIDTH 23 0
BBX 5 4 15 23
BITMAP
18
38
60
80
ENDCHAR
STARTCHAR 00B6
ENCODING 182
SWIDTH 500 0
DWIDTH 36 0
BBX 31 37 7 -9
BITMAP
000003C0
00000420
00000820
00000840
00001080
00002100
00002200
00006400
0000581E
0000E060
00074080
0018C100
0060C200
0180C400
0600C800
0800D000
1000E000
2000E000
6000C000
4000C000
4000C000
8000C000
8001C000
80028000
800C8000
40108000
40208000
20C10000
1F010000
00020000
00020000
00040000
00040000
40080000
20100000
10600000
0F800000
ENDCHAR
STARTCHAR 00B7
ENCODING 183
SWIDTH 208 0
DWIDTH 15 0
BBX 9 8 5 -10
BITMAP
1000
3E00
2300
0180
0180
0180
0180
FF00
ENDCHAR
STARTCHAR 00BB
ENCODING 187
SWIDTH 250 0
DWIDTH 18 0
BBX 16 11 2 17
BITMAP
0208
0208
0104
0186
01C7
071C
0C30
1040
2080
4100
8000
ENDCHAR
STARTCHAR 00C0
ENCODING 192
SWIDTH 847 0
DWIDTH 61 0
BBX 78 57 8 -7
BITMAP
00000000000000000060
00000000000000000070
00000000000000000038
00000000000000000004
00000000000000000000
00000000000000000000
00000000000000000000
00000000000000000000
00000000000000000018
00000000000000000070
000000000000000001A0
00000000000000000240
00000000000000000CC0
0000000000F000001080
000000000F0800002100
00000000300400004300
00000000C0020F808600
000000030003F07A0C00
00000004000600060800
00000018001A00099800
00000020006200107000
00000040018400306000
0000010002040060E000
00000200040400C0D000
00000C00080801819000
0000D800001003031000
003F37C0001006061000
01C0603C00200C0E1000
0600C0078040180C1000
08018000F08030182000
300300003F0060304000
4002000007C0C0704000
4006000005F180E18000
400C0000083F00C20000
801800001007C19C0000
80180000600C3FE00000
80300000801C07000000
80300003003806000000
4060000C00700C000000
2040003000E01C000000
20C001C001C018000000
18C00E00038030000000
0783F000070060100000
01FC00000E00E0200000
018000000C00C0400000
01000000380180800000
01000000600101000000
01000000C00302000000
01000001800204000000
01000003000218000000
01000004000260000000
01000018000180000000
00800020000000000000
008000C0000000000000
00400300000000000000
00300C00000000000000
000FF000000000000000
ENDCHAR
STARTCHAR 00C1
ENCODING 193
SWIDTH 847 0
DWIDTH 61 0
BBX 82 57 8 -7
BITMAP
00000000000000000000C0
00000000000000000001C0
0000000000000000000300
0000000000000000000400
0000000000000000000000
0000000000000000000000
0000000000000000000000
0000000000000000000000
0000000000000000001800
0000000000000000007000
000000000000000001A000
0000000000000000024000
00000000000000000CC000
0000000000F00000108000
000000000F080000210000
0000000030040000430000
00000000C0020F80860000
000000030003F07A0C0000
0000000400060006080000
00000018001A0009980000
0000002000620010700000
0000004001840030600000
0000010002040060E00000
00000200040400C0D00000
00000C0008080181900000
0000D80000100303100000
003F37C000100606100000
01C0603C00200C0E100000
0600C0078040180C100000
08018000F0803018200000
300300003F006030400000
4002000007C0C070400000
4006000005F180E1800000
400C0000083F00C2000000
801800001007C19C000000
80180000600C3FE0000000
80300000801C0700000000
8030000300380600000000
4060000C00700C00000000
2040003000E01C00000000
20C001C001C01800000000
18C00E0003803000000000
0783F00007006010000000
01FC00000E00E020000000
018000000C00C040000000
0100000038018080000000
0100000060010100000000
01000000C0030200000000
0100000180020400000000
0100000300021800000000
0100000400026000000000
0100001800018000000000
0080002000000000000000
008000C000000000000000
0040030000000000000000
00300C0000000000000000
000FF00000000000000000
ENDCHAR
STARTCHAR 00C2
ENCODING 194
SWIDTH 847 0
DWIDTH 61 0
BBX 81 59 8 -7
BITMAP
0000000000000000000180
0000000000000000000380
0000000000000000000780
0000000000000000001880
0000000000000000002080
0000000000000000004000
0000000000000000000000
0000000000000000000000
0000000000000000000000
0000000000000000000000
0000000000000000001800
0000000000000000007000
000000000000000001A000
0000000000000000024000
00000000000000000CC000
0000000000F00000108000
000000000F080000210000
0000000030040000430000
00000000C0020F80860000
000000030003F07A0C0000
0000000400060006080000
00000018001A0009980000
0000002000620010700000
0000004001840030600000
0000010002040060E00000
00000200040400C0D00000
00000C0008080181900000
0000D80000100303100000
003F37C000100606100000
01C0603C00200C0E100000
0600C0078040180C100000
08018000F0803018200000
300300003F006030400000
4002000007C0C070400000
4006000005F180E1800000
400C0000083F00C2000000
801800001007C19C000000
80180000600C3FE0000000
80300000801C0700000000
8030000300380600000000
4060000C00700C00000000
2040003000E01C00000000
20C001C001C01800000000
18C00E0003803000000000
0783F00007006010000000
01FC00000E00E020000000
018000000C00C040000000
0100000038018080000000
0100000060010100000000
01000000C0030200000000
0100000180020400000000
0100000300021800000000
0100000400026000000000
0100001800018000000000
0080002000000000000000
008000C000000000000000
0040030000000000000000
00300C0000000000000000
000FF00000000000000000
ENDCHAR
STARTCHAR 00C3
ENCODING 195
SWIDTH 847 0
DWIDTH 61 0
BBX 84 55 8 -7
BITMAP
000000000000000000FE00
00000000000000000003B0
0000000000000000000040
0000000000000000000000
0000000000000000000000
0000000000000000000000
0000000000000000001800
0000000000000000007000
000000000000000001A000
0000000000000000024000
00000000000000000CC000
0000000000F00000108000
000000000F080000210000
0000000030040000430000
00000000C0020F80860000
000000030003F07A0C0000
0000000400060006080000
00000018001A0009980000
0000002000620010700000
0000004001840030600000
0000010002040060E00000
00000200040400C0D00000
00000C0008080181900000
0000D80000100303100000
003F37C000100606100000
01C0603C00200C0E100000
0600C0078040180C100000
08018000F0803018200000
300300003F006030400000
4002000007C0C070400000
4006000005F180E1800000
400C0000083F00C2000000
801800001007C19C000000
80180000600C3FE0000000
80300000801C0700000000
8030000300380600000000
4060000C00700C00000000
2040003000E01C00000000
20C001C001C01800000000
18C00E0003803000000000
0783F00007006010000000
01FC00000E00E020000000
018000000C00C040000000
0100000038018080000000
0100000060010100000000
01000000C0030200000000
0100000180020400000000
0100000300021800000000
0100000400026000000000
0100001800018000000000
0080002000000000000000
008000C000000000000000
0040030000000000000000
00300C0000000000000000
000FF00000000000000000
ENDCHAR
STARTCHAR 00C4
ENCODING 196
SWIDTH 847 0
DWIDTH 61 0
BBX 83 56 8 -8
BITMAP
0000000000000000002020
00000000000000000060E0
00000000000000000060C0
0000000000000000000000
0000000000000000000000
0000000000000000000000
0000000000000000000000
0000000000000000001800
0000000000000000007000
000000000000000001A000
0000000000000000024000
00000000000000000CC000
0000000000F00000108000
000000000F080000210000
0000000030040000430000
00000000C0020F80860000
000000030003F07A0C0000
0000000400060006080000
00000018001A0009980000
0000002000620010700000
0000004001840030600000
0000010002040060E00000
00000200040400C0D00000
00000C0008080181900000
0000D80000100303100000
003F37C000100606100000
01C0603C00200C0E100000
0600C0078040180C100000
08018000F0803018200000
300300003F006030400000
4002000007C0C070400000
4006000005F180E1800000
400C0000083F00C2000000
801800001007C19C000000
80180000600C3FE0000000
80300000801C0700000000
8030000300380600000000
4060000C00700C00000000
2040003000E01C00000000
20C001C001C01800000000
18C00E0003803000000000
0783F00007006010000000
01FC00000E00E020000000
018000000C00C040000000
0100000038018080000000
0100000060010100000000
01000000C0030200000000
0100000180020400000000
0100000300021800000000
0100000400026000000000
0100001800018000000000
0080002000000000000000
008000C000000000000000
0040030000000000000000
00300C0000000000000000
000FF00000000000000000
ENDCHAR
STARTCHAR 00C5
ENCODING 197
SWIDTH 847 0
DWIDTH 61 0
BBX 83 60 8 -8
BITMAP
00000000000000000000C0
0000000000000000000320
0000000000000000000420
0000000000000000000420
0000000000000000000840
0000000000000000000880
0000000000000000000900
0000000000000000000600
0000000000000000000000
0000000000000000000000
0000000000000000000000
0000000000000000001800
0000000000000000007000
000000000000000001A000
0000000000000000024000
00000000000000000CC000
0000000000F00000108000
000000000F080000210000
0000000030040000430000
00000000C0020F80860000
000000030003F07A0C0000
0000000400060006080000
00000018001A0009980000
0000002000620010700000
0000004001840030600000
0000010002040060E00000
00000200040400C0D00000
00000C0008080181900000
0000D80000100303100000
003F37C000100606100000
01C0603C00200C0E100000
0600C0078040180C100000
08018000F0803018200000
300300003F006030400000
4002000007C0C070400000
4006000005F180E1800000
400C0000083F00C2000000
801800001007C19C000000
80180000600C3FE0000000
80300000801C0700000000
8030000300380600000000
4060000C00700C00000000
2040003000E01C00000000
20C001C001C01800000000
18C00E0003803000000000
0783F00007006010000000
01FC00000E00E020000000
018000000C00C040000000
0100000038018080000000
0100000060010100000000
01000000C0030200000000
0100000180020400000000
0100000300021800000000
0100000400026000000000
0100001800018000000000
0080002000000000000000
008000C000000000000000
0040030000000000000000
00300C0000000000000000
000FF00000000000000000
ENDCHAR
STARTCHAR 00C6
ENCODING 198
SWIDTH 1166 0
DWIDTH 84 0
BBX 98 49 8 -5
BITMAP
0000000000000000000007FE00
00000000000000000018380180
00000000000000000071C00040
000000000000000001A3000040
0000000000000000026E000040
00000000000000000458000080
0000000003F0000008F0000300
000000001C0C000010E0000C00
000000006004000021C0003000
0000000180023FF0C3C003C000
000000020003C00F83801C0000
0000000C000E00038780E00000
00000030003200046F00000000
0000004000C400081F00000000
00000080010400301B00000000
00000200060800603700000000
00000400080800C06580000000
0000080000100180C4C0000000
0007FF0000100301847F800000
007FFFF80020060304FFC00000
03E020FF804018060700000000
0E004007F080300C7800000000
180080007F0060199000000000
3001000007C0C03E2000000000
4002000005F18078C000000000
40060000183F00F10FC0000000
800C00002007E1CE3030000000
80180000400C1FF0C018000000
80300001801807010018000000
8030000600300E02000C000000
8060001800600C04000C000000
40C0006000C01C04000C000000
20C0038001801808000C000000
19801C0003003808000C000000
078FE00006003010001C000000
017000000C0030100018000000
01000000180070000038000000
03000000300060000030000000
03000000600060000070000000
03000000C00060000060000000
030000018000600000C0000000
010000020000600001C0000000
0100000C000020000380000000
01000018000030000600000000
01000060000010000C00000000
00800080000008001800000000
00400300000004006000000000
00301C00000003878000000000
000FE000000000780000000000
ENDCHAR
STARTCHAR 00C7
ENCODING 199
SWIDTH 541 0
DWIDTH 39 0
BBX 58 59 3 -15
BITMAP
0000000000000F00
000000000001F080
000000FFC00E0040
0000030038700040
00000C0005800040
0000100006000080
000020001A000100
0000400021000200
00004000C1000C00
0000800181003000
000100020080C000
0001000C00830000
00010018009C0000
0002003000E00000
000000E00F000000
000001C1F1000000
000003BE01000000
000007E001000000
00001E0002000000
0000FC0002000000
0003180004000000
000C380004000000
0010700FF8000000
0060E01008000000
0080C06014000000
0301C08024000000
0403810044000000
0803020084000000
1007020104000000
2006040204000000
400C080404000000
400C100804000000
8008101008000000
8018002008000000
8010004018000000
8010008010000000
8030030020000000
80200C0060000000
8020300040000000
4020C00080000000
3027000180000000
0FF8000300000000
0020000600000000
0020000C00000000
0020001800000000
0020003000000000
0010004000000000
0008018000000000
0004060000000000
0003F80000000000
0004000000000000
0008000000000000
000F000000000000
0011C00000000000
0000600000000000
0000600000000000
0000600000000000
0000C00000000000
007F800000000000
ENDCHAR
STARTCHAR 00C8
ENCODING 200
SWIDTH 569 0
DWIDTH 41 0
BBX 53 57 8 -6
BITMAP
00000000000700
00000000000380
000000000001C0
00000000000060
00000000000000
00000000000000
00000000000000
00000000003FC0
0000000003C030
000000000E0008
00000000380008
00001FC0E00008
0000E033800008
0001000F000010
0002000E000040
0004001D000180
00080018800E00
00080038807000
00100030478000
00100030F80000
0000003F400000
000001E0400000
00001E20200000
0000E030200000
00070030200000
00180018400000
0020000C400000
00C0003FF80000
030003C0400000
04000C00400000
08006000800000
1000C000800000
20030001000000
200E01F9000000
401C0606000000
40381803000000
80702005000000
80E04009000000
80E08009800000
81C08011800000
81810021800000
83820041800000
83020081000000
47000303000000
47000403000000
26001806000000
16006006000000
0E03800C000000
07FC0008000000
06000010000000
06000020000000
03000040000000
03000080000000
01800300000000
00C00400000000
00303800000000
000FC000000000
ENDCHAR
STARTCHAR 00C9
ENCODING 201
SWIDTH 569 0
DWIDTH 41 0
BBX 56 57 8 -6
BITMAP
00000000000003
00000000000007
0000000000000C
00000000000010
00000000000000
00000000000000
00000000000000
00000000003FC0
0000000003C030
000000000E0008
00000000380008
00001FC0E00008
0000E033800008
0001000F000010
0002000E000040
0004001D000180
00080018800E00
00080038807000
00100030478000
00100030F80000
0000003F400000
000001E0400000
00001E20200000
0000E030200000
00070030200000
00180018400000
0020000C400000
00C0003FF80000
030003C0400000
04000C00400000
08006000800000
1000C000800000
20030001000000
200E01F9000000
401C0606000000
40381803000000
80702005000000
80E04009000000
80E08009800000
81C08011800000
81810021800000
83820041800000
83020081000000
47000303000000
47000403000000
26001806000000
16006006000000
0E03800C000000
07FC0008000000
06000010000000
06000020000000
03000040000000
03000080000000
01800300000000
00C00400000000
00303800000000
000FC000000000
ENDCHAR
STARTCHAR 00CA
ENCODING 202
SWIDTH 569 0
DWIDTH 41 0
BBX 53 59 8 -6
BITMAP
00000000000018
00000000000038
00000000000078
00000000000188
00000000000208
00000000000408
00000000000000
00000000000000
00000000000000
00000000003FC0
0000000003C030
000000000E0008
00000000380008
00001FC0E00008
0000E033800008
0001000F000010
0002000E000040
0004001D000180
00080018800E00
00080038807000
00100030478000
00100030F80000
0000003F400000
000001E0400000
00001E20200000
0000E030200000
00070030200000
00180018400000
0020000C400000
00C0003FF80000
030003C0400000
04000C00400000
08006000800000
1000C000800000
20030001000000
200E01F9000000
401C0606000000
40381803000000
80702005000000
80E04009000000
80E08009800000
81C08011800000
81810021800000
83820041800000
83020081000000
47000303000000
47000403000000
26001806000000
16006006000000
0E03800C000000
07FC0008000000
06000010000000
06000020000000
03000040000000
03000080000000
01800300000000
00C00400000000
00303800000000
000FC000000000
ENDCHAR
STARTCHAR 00CB
ENCODING 203
SWIDTH 569 0
DWIDTH 41 0
BBX 56 56 8 -7
BITMAP
00000000000100
00000000000307
00000000000706
00000000000000
00000000000000
00000000000000
00000000003FC0
0000000003C030
000000000E0008
00000000380008
00001FC0E00008
0000E033800008
0001000F000010
0002000E000040
0004001D000180
00080018800E00
00080038807000
00100030478000
00100030F80000
0000003F400000
000001E0400000
00001E20200000
0000E030200000
00070030200000
00180018400000
0020000C400000
00C0003FF80000
030003C0400000
04000C00400000
08006000800000
1000C000800000
20030001000000
200E01F9000000
401C0606000000
40381803000000
80702005000000
80E04009000000
80E08009800000
81C08011800000
81810021800000
83820041800000
83020081000000
47000303000000
47000403000000
26001806000000
16006006000000
0E03800C000000
07FC0008000000
06000010000000
06000020000000
03000040000000
03000080000000
01800300000000
00C00400000000
00303800000000
000FC000000000
ENDCHAR
STARTCHAR 00CC
ENCODING 204
SWIDTH 819 0
DWIDTH 59 0
BBX 74 57 14 -6
BITMAP
00000000000000000C00
00000000000000000E00
00000000000000000380
000000000000000000C0
00000000000000000000
00000000000000000000
00000000000000000000
00000000000000000000
00000000000000003FC0
0000000000000003D000
000000000000001C6000
00000000000000E08000
00000000000003010000
0000000001F00C020000
000000001E0C30040000
00000000E003C0080000
00000003000300100000
0000000C000700200000
00000010000D00400000
00000060001900800000
00000080007101840000
0000030000E101040000
0000060001C202040000
00000C00038206040000
00001800030404080000
00003000060408080000
003FEE000C0818100000
01C0C1F8181030100000
06018007F83030600000
080300003C2060800000
3003000063C0C3000000
20060000E0BFFC000000
400C0000C10180000000
800C0001860300000000
80180001880700000000
80100001B00600000000
80300003400C00000000
80200003801C00000000
40600007001800000000
4060001A003000000000
20C000E2006000000000
18C00702006008000000
06C0780200C010000000
01FF8003018020000000
00800003030040000000
00800003060080000000
00800001840100000000
00800001980200000000
00800000F00C00000000
00800000603000000000
00800000DFC000000000
00400001000000000000
00400006000000000000
00200018000000000000
00180060000000000000
00060780000000000000
0001F800000000000000
ENDCHAR
STARTCHAR 00CD
ENCODING 205
SWIDTH 819 0
DWIDTH 59 0
BBX 77 57 14 -6
BITMAP
00000000000000000018
00000000000000000038
00000000000000000060
00000000000000000080
00000000000000000000
00000000000000000000
00000000000000000000
00000000000000000000
00000000000000003FC0
0000000000000003D000
000000000000001C6000
00000000000000E08000
00000000000003010000
0000000001F00C020000
000000001E0C30040000
00000000E003C0080000
00000003000300100000
0000000C000700200000
00000010000D00400000
00000060001900800000
00000080007101840000
0000030000E101040000
0000060001C202040000
00000C00038206040000
00001800030404080000
00003000060408080000
003FEE000C0818100000
01C0C1F8181030100000
06018007F83030600000
080300003C2060800000
3003000063C0C3000000
20060000E0BFFC000000
400C0000C10180000000
800C0001860300000000
80180001880700000000
80100001B00600000000
80300003400C00000000
80200003801C00000000
40600007001800000000
4060001A003000000000
20C000E2006000000000
18C00702006008000000
06C0780200C010000000
01FF8003018020000000
00800003030040000000
00800003060080000000
00800001840100000000
00800001980200000000
00800000F00C00000000
00800000603000000000
00800000DFC000000000
00400001000000000000
00400006000000000000
00200018000000000000
00180060000000000000
00060780000000000000
0001F800000000000000
ENDCHAR
STARTCHAR 00CE
ENCODING 206
SWIDTH 819 0
DWIDTH 59 0
BBX 76 59 14 -6
BITMAP
00000000000000000010
00000000000000000070
000000000000000000F0
00000000000000000310
00000000000000000410
00000000000000000800
00000000000000000000
00000000000000000000
00000000000000000000
00000000000000000000
00000000000000003FC0
0000000000000003D000
000000000000001C6000
00000000000000E08000
00000000000003010000
0000000001F00C020000
000000001E0C30040000
00000000E003C0080000
00000003000300100000
0000000C000700200000
00000010000D00400000
00000060001900800000
00000080007101840000
0000030000E101040000
0000060001C202040000
00000C00038206040000
00001800030404080000
00003000060408080000
003FEE000C0818100000
01C0C1F8181030100000
06018007F83030600000
080300003C2060800000
3003000063C0C3000000
20060000E0BFFC000000
400C0000C10180000000
800C0001860300000000
80180001880700000000
80100001B00600000000
80300003400C00000000
80200003801C00000000
40600007001800000000
4060001A003000000000
20C000E2006000000000
18C00702006008000000
06C0780200C010000000
01FF8003018020000000
00800003030040000000
00800003060080000000
00800001840100000000
00800001980200000000
00800000F00C00000000
00800000603000000000
00800000DFC000000000
00400001000000000000
00400006000000000000
00200018000000000000
00180060000000000000
00060780000000000000
0001F800000000000000
ENDCHAR
STARTCHAR 00CF
ENCODING 207
SWIDTH 819 0
DWIDTH 59 0
BBX 78 56 14 -7
BITMAP
00000000000000000400
00000000000000000C1C
00000000000000001818
00000000000000000000
00000000000000000000
00000000000000000000
00000000000000000000
00000000000000003FC0
0000000000000003D000
000000000000001C6000
00000000000000E08000
00000000000003010000
0000000001F00C020000
000000001E0C30040000
00000000E003C0080000
00000003000300100000
0000000C000700200000
00000010000D00400000
00000060001900800000
00000080007101840000
0000030000E101040000
0000060001C202040000
00000C00038206040000
00001800030404080000
00003000060408080000
003FEE000C0818100000
01C0C1F8181030100000
06018007F83030600000
080300003C2060800000
3003000063C0C3000000
20060000E0BFFC000000
400C0000C10180000000
800C0001860300000000
80180001880700000000
80100001B00600000000
80300003400C00000000
80200003801C00000000
40600007001800000000
4060001A003000000000
20C000E2006000000000
18C00702006008000000
06C0780200C010000000
01FF8003018020000000
00800003030040000000
00800003060080000000
00800001840100000000
00800001980200000000
00800000F00C00000000
00800000603000000000
00800000DFC000000000
00400001000000000000
00400006000000000000
00200018000000000000
00180060000000000000
00060780000000000000
0001F800000000000000
ENDCHAR
STARTCHAR 00D1
ENCODING 209
SWIDTH 944 0
DWIDTH 68 0
BBX 93 55 11 -6
BITMAP
0000000000000000003F8000
00000000000000000000EC00
000000000000000000001000
000000000000000000000000
000000000000000000000000
0000000000000000000001E0
000000000000000000000610
000000000000000000001808
000000000000000020006010
0000000000000000E0008000
000000000000000140010000
0000000000E0000240060000
000000000F1C000480080000
000000007002000880100000
000000018007FF1080200000
00000002001A00D080400000
0000000C0062002100800000
000000300082005101000000
000000400102009102000000
000000800604009104000000
000001000804011308000000
000006000008022210000000
00000C000008042210000000
000018000010044620000000
007FFC000010084640000000
038063C00020108680000000
0C00C03C0040230700000000
10018003E0802C0E00000000
200300001F80700C00000000
40030000017F800800000000
400600000201801800000000
800C00000C03002800000000
800C00001002005000000000
801800002004009000000000
40100000C008009000000000
403000030018012000000000
2020000C0030022000000000
106000300060044000000000
084001C00040044000000000
07C01E000080084000000000
00BFE0000100108000000000
008000000200108000000000
008000000400210000000000
018000000800410000000000
018000001000420000000000
018000002000820000000000
008000004000840000000000
008000018000880000000000
008000020000900000000000
0080000C0000600000000000
004000100000000000000000
004000600000000000000000
003001800000000000000000
00081E000000000000000000
0007E0000000000000000000
ENDCHAR
STARTCHAR 00D2
ENCODING 210
SWIDTH 666 0
DWIDTH 48 0
BBX 51 57 11 -6
BITMAP
00000000000700
00000000000780
000000000001C0
00000000000060
00000000000000
00000000000000
00000000000000
00000000000000
00000000001FC0
0000003FF06020
000000C00D8020
00000300020020
000004000D0060
00000800110060
000010002100A0
00002000C08120
00004001808220
00004003008C20
0000800600B040
0000800C01C040
000100181E8040
00010030E08080
0000006F010080
000003D0010100
00003CC0010100
0001C180020200
00060300020200
00180600020400
00600C00040400
01800C00040800
02001800081800
04003000081000
08007000102000
10006000106000
2000C00020C000
2000C000408000
40018000810000
40010000830000
80030001060000
80020002040000
8006000C080000
80040010100000
80040020300000
400C00C0200000
40080300400000
20081C00800000
1818E001000000
07FF0002000000
00100004000000
00100008000000
00100010000000
00100060000000
00100080000000
00100100000000
00100600000000
000C1800000000
0003E000000000
ENDCHAR
STARTCHAR 00D3
ENCODING 211
SWIDTH 666 0
DWIDTH 48 0
BBX 54 57 11 -6
BITMAP
0000000000001C
00000000000038
00000000000070
000000000000C0
00000000000000
00000000000000
00000000000000
00000000000000
00000000001FC0
0000003FF06020
000000C00D8020
00000300020020
000004000D0060
00000800110060
000010002100A0
00002000C08120
00004001808220
00004003008C20
0000800600B040
0000800C01C040
000100181E8040
00010030E08080
0000006F010080
000003D0010100
00003CC0010100
0001C180020200
00060300020200
00180600020400
00600C00040400
01800C00040800
02001800081800
04003000081000
08007000102000
10006000106000
2000C00020C000
2000C000408000
40018000810000
40010000830000
80030001060000
80020002040000
8006000C080000
80040010100000
80040020300000
400C00C0200000
40080300400000
20081C00800000
1818E001000000
07FF0002000000
00100004000000
00100008000000
00100010000000
00100060000000
00100080000000
00100100000000
00100600000000
000C1800000000
0003E000000000
ENDCHAR
STARTCHAR 00D4
ENCODING 212
SWIDTH 666 0
DWIDTH 48 0
BBX 53 60 11 -7
BITMAP
00000000000008
00000000000018
00000000000038
000000000000D8
00000000000118
00000000000608
00000000000808
00000000000000
00000000000000
00000000000000
00000000000000
00000000001FC0
0000003FF06020
000000C00D8020
00000300020020
000004000D0060
00000800110060
000010002100A0
00002000C08120
00004001808220
00004003008C20
0000800600B040
0000800C01C040
000100181E8040
00010030E08080
0000006F010080
000003D0010100
00003CC0010100
0001C180020200
00060300020200
00180600020400
00600C00040400
01800C00040800
02001800081800
04003000081000
08007000102000
10006000106000
2000C00020C000
2000C000408000
40018000810000
40010000830000
80030001060000
80020002040000
8006000C080000
80040010100000
80040020300000
400C00C0200000
40080300400000
20081C00800000
1818E001000000
07FF0002000000
00100004000000
00100008000000
00100010000000
00100060000000
00100080000000
00100100000000
00100600000000
000C1800000000
0003E000000000
ENDCHAR
STARTCHAR 00D5
ENCODING 213
SWIDTH 666 0
DWIDTH 48 0
BBX 56 55 11 -6
BITMAP
00000000000FF0
0000000000001B
00000000000004
00000000000000
00000000000000
00000000000000
00000000001FC0
0000003FF06020
000000C00D8020
00000300020020
000004000D0060
00000800110060
000010002100A0
00002000C08120
00004001808220
00004003008C20
0000800600B040
0000800C01C040
000100181E8040
00010030E08080
0000006F010080
000003D0010100
00003CC0010100
0001C180020200
00060300020200
00180600020400
00600C00040400
01800C00040800
02001800081800
04003000081000
08007000102000
10006000106000
2000C00020C000
2000C000408000
40018000810000
40010000830000
80030001060000
80020002040000
8006000C080000
80040010100000
80040020300000
400C00C0200000
40080300400000
20081C00800000
1818E001000000
07FF0002000000
00100004000000
00100008000000
00100010000000
00100060000000
00100080000000
00100100000000
00100600000000
000C1800000000
0003E000000000
ENDCHAR
STARTCHAR 00D6
ENCODING 214
SWIDTH 666 0
DWIDTH 48 0
BBX 55 56 11 -7
BITMAP
00000000000202
00000000000606
0000000000060C
00000000000000
00000000000000
00000000000000
00000000000000
00000000001FC0
0000003FF06020
000000C00D8020
00000300020020
000004000D0060
00000800110060
000010002100A0
00002000C08120
00004001808220
00004003008C20
0000800600B040
0000800C01C040
000100181E8040
00010030E08080
0000006F010080
000003D0010100
00003CC0010100
0001C180020200
00060300020200
00180600020400
00600C00040400
01800C00040800
02001800081800
04003000081000
08007000102000
10006000106000
2000C00020C000
2000C000408000
40018000810000
40010000830000
80030001060000
80020002040000
8006000C080000
80040010100000
80040020300000
400C00C0200000
40080300400000
20081C00800000
1818E001000000
07FF0002000000
00100004000000
00100008000000
00100010000000
00100060000000
00100080000000
00100100000000
00100600000000
000C1800000000
0003E000000000
ENDCHAR
STARTCHAR 00D8
ENCODING 216
SWIDTH 666 0
DWIDTH 48 0
BBX 58 49 11 -6
BITMAP
00000000001FC0C0
0000003FF0602180
000000C00D802300
0000030002002400
000004000D006800
0000080011005000
000010002100A000
00002000C0816000
000040018082A000
00004003008D2000
0000800600B64000
0000800C01CC4000
000100181E984000
00010030E0B08000
0000006F01608000
000003D000C10000
00003CC001010000
0001C18003020000
0006030006020000
001806000A040000
00600C0014040000
01800C0064080000
02001800C8180000
0400300188100000
0800700310200000
1000600610600000
2000C00C20C00000
2000C01840800000
4001802041000000
4001004083000000
8003008106000000
8002010204000000
8006020C08000000
8004041010000000
8004186030000000
400C308020000000
4008630040000000
2008DC0080000000
1819E00100000000
07FF000200000000
0014000400000000
0018000800000000
0010001000000000
0030006000000000
0050008000000000
0190010000000000
0310060000000000
0608180000000000
0C07E00000000000
ENDCHAR
STARTCHAR 00D9
ENCODING 217
SWIDTH 777 0
DWIDTH 56 0
BBX 60 66 13 -18
BITMAP
0000000000006000
0000000000007000
0000000000003800
0000000000000400
0000000078000000
0000000F87000000
0000007000C00000
0000018000200000
0000060000200000
0000180000100000
0000600000100000
0001800000100000
0003000000100020
0004001FC01000D0
001800E040100310
0030030020200420
0060040020200820
00C0180040600840
0180200040401080
0300400040802080
0600800081804100
0401000083008200
0C02000F82008200
1804003144010400
100800C22C020800
3008010418021000
2010060830041000
2020080870082000
40401010D0184000
4040002190108000
4080004320310000
8080008620610000
8100010C20620000
8100021840C40000
82000C3040880000
8200106081900000
440060C083200000
440080C103200000
2403018206400000
181C030206800000
0FE002040D000000
080006080E000000
08000C101C000000
0800081018000000
0800082038000000
1000104030000000
1000108070000000
08001100E0000000
0800220160000000
0800240260000000
0400380C60000000
0400201040000000
0301D060C0000000
00FE0F80C0000000
00000000C0000000
00000000C0000000
0000000080000000
0000000080000800
0000000080001000
0000000040002000
0000000040004000
0000000040008000
0000000020010000
00000000100E0000
000000000F700000
0000000000800000
ENDCHAR
STARTCHAR 00DA
ENCODING 218
SWIDTH 777 0
DWIDTH 56 0
BBX 60 66 13 -18
BITMAP
0000000000000070
0000000000000070
00000000000000C0
0000000000000100
0000000078000000
0000000F87000000
0000007000C00000
0000018000200000
0000060000200000
0000180000100000
0000600000100000
0001800000100000
0003000000100020
0004001FC01000D0
001800E040100310
0030030020200420
0060040020200820
00C0180040600840
0180200040401080
0300400040802080
0600800081804100
0401000083008200
0C02000F82008200
1804003144010400
100800C22C020800
3008010418021000
2010060830041000
2020080870082000
40401010D0184000
4040002190108000
4080004320310000
8080008620610000
8100010C20620000
8100021840C40000
82000C3040880000
8200106081900000
440060C083200000
440080C103200000
2403018206400000
181C030206800000
0FE002040D000000
080006080E000000
08000C101C000000
0800081018000000
0800082038000000
1000104030000000
1000108070000000
08001100E0000000
0800220160000000
0800240260000000
0400380C60000000
0400201040000000
0301D060C0000000
00FE0F80C0000000
00000000C0000000
00000000C0000000
0000000080000000
0000000080000800
0000000080001000
0000000040002000
0000000040004000
0000000040008000
0000000020010000
00000000100E0000
000000000F700000
0000000000800000
ENDCHAR
STARTCHAR 00DB
ENCODING 219
SWIDTH 777 0
DWIDTH 56 0
BBX 60 69 13 -19
BITMAP
0000000000000020
0000000000000060
00000000000000E0
0000000000000360
0000000000000460
0000000000001820
0000000000002020
0000000078000020
0000000F87000000
0000007000C00000
0000018000200000
0000060000200000
0000180000100000
0000600000100000
0001800000100000
0003000000100020
0004001FC01000D0
001800E040100310
0030030020200420
0060040020200820
00C0180040600840
0180200040401080
0300400040802080
0600800081804100
0401000083008200
0C02000F82008200
1804003144010400
100800C22C020800
3008010418021000
2010060830041000
2020080870082000
40401010D0184000
4040002190108000
4080004320310000
8080008620610000
8100010C20620000
8100021840C40000
82000C3040880000
8200106081900000
440060C083200000
440080C103200000
2403018206400000
181C030206800000
0FE002040D000000
080006080E000000
08000C101C000000
0800081018000000
0800082038000000
1000104030000000
1000108070000000
08001100E0000000
0800220160000000
0800240260000000
0400380C60000000
0400201040000000
0301D060C0000000
00FE0F80C0000000
00000000C0000000
00000000C0000000
0000000080000000
0000000080000800
0000000080001000
0000000040002000
0000000040004000
0000000040008000
0000000020010000
00000000100E0000
000000000F700000
0000000000800000
ENDCHAR
STARTCHAR 00DC
ENCODING 220
SWIDTH 777 0
DWIDTH 56 0
BBX 61 65 13 -19
BITMAP
0000000000000808
0000000000001818
0000000000001830
0000000078000000
0000000F87000000
0000007000C00000
0000018000200000
0000060000200000
0000180000100000
0000600000100000
0001800000100000
0003000000100020
0004001FC01000D0
001800E040100310
0030030020200420
0060040020200820
00C0180040600840
0180200040401080
0300400040802080
0600800081804100
0401000083008200
0C02000F82008200
1804003144010400
100800C22C020800
3008010418021000
2010060830041000
2020080870082000
40401010D0184000
4040002190108000
4080004320310000
8080008620610000
8100010C20620000
8100021840C40000
82000C3040880000
8200106081900000
440060C083200000
440080C103200000
2403018206400000
181C030206800000
0FE002040D000000
080006080E000000
08000C101C000000
0800081018000000
0800082038000000
1000104030000000
1000108070000000
08001100E0000000
0800220160000000
0800240260000000
0400380C60000000
0400201040000000
0301D060C0000000
00FE0F80C0000000
00000000C0000000
00000000C0000000
0000000080000000
0000000080000800
0000000080001000
0000000040002000
0000000040004000
0000000040008000
0000000020010000
00000000100E0000
000000000F700000
0000000000800000
ENDCHAR
STARTCHAR 00DF
ENCODING 223
SWIDTH 222 0
DWIDTH 16 0
BBX 58 55 -21 -10
BITMAP
0000000000001F80
0000000000002040
000000000000C040
0000000000010040
0000000000020080
0000000000040080
0000000000040100
0000000000080300
0000000000100600
0000000000200C00
0000000000201000
0000000000402000
0000000000804000
0000000000818000
0000000001020000
00000000020C0000
0000000004300000
0000000004400000
0000000008800000
0000000011000000
0000000012000000
0000000022000000
0000000042000000
0000000044000000
0000000084000000
0000000104000000
0000000304000000
0000000204000000
000000040C000000
0000000C0C000000
000000080C000000
000000100C000000
0000002008000000
0000006118000000
0000004618000000
0000008810000000
0000019030000000
0000012020000000
0000022060000000
0000064040000000
0000044080000000
0000084100000000
0000184200000000
0000303C00000000
0000200000000000
0000400000000000
0000C00000000000
0001800000000000
0003000000000000
0006000000000000
400C000000000000
8010000000000000
4060000000000000
2180000000000000
1E00000000000000
ENDCHAR
STARTCHAR 00E0
ENCODING 224
SWIDTH 222 0
DWIDTH 16 0
BBX 22 28 -1 0
BITMAP
000100
000380
0001E0
000070
000000
000000
000000
000000
000060
0003A4
000418
000818
003030
004020
00C040
0180C0
030180
060100
040200
08060C
100C10
101820
203840
405080
41A100
822200
442400
781800
ENDCHAR
STARTCHAR 00E1
ENCODING 225
SWIDTH 222 0
DWIDTH 16 0
BBX 25 26 -1 1
BITMAP
00000380
00000700
00000E00
00001800
00000000
00000000
00006000
0003A400
00041800
00081800
00303000
00402000
00C04000
0180C000
03018000
06010000
04020000
08060C00
100C1000
10182000
20384000
40508000
41A10000
82220000
44240000
78180000
ENDCHAR
STARTCHAR 00E2
ENCODING 226
SWIDTH 222 0
DWIDTH 16 0
BBX 23 30 -1 1
BITMAP
000002
000006
00000E
000032
000042
000182
000000
000000
000000
000000
000060
0003A4
000418
000818
003030
004020
00C040
0180C0
030180
060100
040200
08060C
100C10
101820
203840
405080
41A100
822200
442400
781800
ENDCHAR
STARTCHAR 00E3
ENCODING 227
SWIDTH 222 0
DWIDTH 16 0
BBX 25 26 -1 1
BITMAP
0001E000
00021C80
00000700
00000000
00000000
00000000
00006000
0003A400
00041800
00081800
00303000
00402000
00C04000
0180C000
03018000
06010000
04020000
08060C00
100C1000
10182000
20384000
40508000
41A10000
82220000
44240000
78180000
ENDCHAR
STARTCHAR 00E4
ENCODING 228
SWIDTH 222 0
DWIDTH 16 0
BBX 25 26 -1 1
BITMAP
00018180
00018380
00010300
00000000
00000000
00000000
00006000
0003A400
00041800
00081800
00303000
00402000
00C04000
0180C000
03018000
06010000
04020000
08060C00
100C1000
10182000
20384000
40508000
41A10000
82220000
44240000
78180000
ENDCHAR
STARTCHAR 00E5
ENCODING 229
SWIDTH 222 0
DWIDTH 16 0
BBX 24 30 -1 1
BITMAP
00000F
000011
000021
000021
000042
000044
000038
000000
000000
000000
000060
0003A4
000418
000818
003030
004020
00C040
0180C0
030180
060100
040200
08060C
100C10
101820
203840
405080
41A100
822200
442400
781800
ENDCHAR
STARTCHAR 00E6
ENCODING 230
SWIDTH 305 0
DWIDTH 22 0
BBX 28 20 0 0
BITMAP
0001C860
00063BF0
00083F20
00303C20
006078C0
00C06100
0180CE00
0301B000
06014000
0C020000
18040020
30080040
20380080
60500100
40900600
81100800
82101000
8C102000
9008C000
60070000
ENDCHAR
STARTCHAR 00E7
ENCODING 231
SWIDTH 166 0
DWIDTH 12 0
BBX 21 31 -3 -13
BITMAP
000030
000078
0001C8
000388
000610
000C00
001800
003000
006000
00C000
018008
018010
030020
020040
060080
040100
080200
080400
080800
083000
04C000
030000
040000
080000
0F8000
00C000
006000
006000
004000
C1C000
3F8000
ENDCHAR
STARTCHAR 00E8
ENCODING 232
SWIDTH 180 0
DWIDTH 13 0
BBX 17 28 1 -1
BITMAP
001800
001C00
000700
000180
000000
000000
000000
000000
000380
000C80
003100
004100
008600
010800
023000
04C000
0F0000
180000
300180
200100
600200
400400
401800
802000
804000
808000
430000
3C0000
ENDCHAR
STARTCHAR 00E9
ENCODING 233
SWIDTH 180 0
DWIDTH 13 0
BBX 20 28 1 -1
BITMAP
000030
000070
0000C0
000100
000000
000000
000000
000000
000380
000C80
003100
004100
008600
010800
023000
04C000
0F0000
180000
300180
200100
600200
400400
401800
802000
804000
808000
430000
3C0000
ENDCHAR
STARTCHAR 00EA
ENCODING 234
SWIDTH 180 0
DWIDTH 13 0
BBX 20 30 1 -1
BITMAP
000010
000070
0000D0
000110
000610
000800
000000
000000
000000
000000
000380
000C80
003100
004100
008600
010800
023000
04C000
0F0000
180000
300180
200100
600200
400400
401800
802000
804000
808000
430000
3C0000
ENDCHAR
STARTCHAR 00EB
ENCODING 235
SWIDTH 180 0
DWIDTH 13 0
BBX 22 27 1 -2
BITMAP
000404
000C1C
001C18
000000
000000
000000
000000
000380
000C80
003100
004100
008600
010800
023000
04C000
0F0000
180000
300180
200100
600200
400400
401800
802000
804000
808000
430000
3C0000
ENDCHAR
STARTCHAR 00EC
ENCODING 236
SWIDTH 97 0
DWIDTH 7 0
BBX 14 29 0 0
BITMAP
0080
01C0
00E0
0038
000C
0000
0000
0000
0000
0030
0020
0040
00C0
0180
0100
0200
0600
0408
0810
1820
1020
2040
4080
4100
8100
8600
8C00
B000
6000
ENDCHAR
STARTCHAR 00ED
ENCODING 237
SWIDTH 97 0
DWIDTH 7 0
BBX 18 27 0 1
BITMAP
0001C0
000380
000700
000C00
000000
000000
000000
003000
002000
004000
00C000
018000
010000
020000
060000
040800
081000
182000
102000
204000
408000
410000
810000
860000
8C0000
B00000
600000
ENDCHAR
STARTCHAR 00EE
ENCODING 238
SWIDTH 97 0
DWIDTH 7 0
BBX 17 31 0 0
BITMAP
000080
000180
000780
000980
003080
004080
008080
000000
000000
000000
000000
003000
002000
004000
00C000
018000
010000
020000
060000
040800
081000
182000
102000
204000
408000
410000
810000
860000
8C0000
B00000
600000
ENDCHAR
STARTCHAR 00EF
ENCODING 239
SWIDTH 97 0
DWIDTH 7 0
BBX 18 27 0 1
BITMAP
00C0C0
01C180
018180
000000
000000
000000
000000
003000
002000
004000
00C000
018000
010000
020000
060000
040800
081000
182000
102000
204000
408000
410000
810000
860000
8C0000
B00000
600000
ENDCHAR
STARTCHAR 00F1
ENCODING 241
SWIDTH 305 0
DWIDTH 22 0
BBX 24 26 4 -1
BITMAP
000FE0
00003B
000004
000000
000000
000000
00703C
0190C4
021104
041604
081808
103018
206030
404060
40C0C0
818181
010302
020604
060608
0C0C10
081820
103040
302080
602100
402600
003800
ENDCHAR
STARTCHAR 00F2
ENCODING 242
SWIDTH 208 0
DWIDTH 15 0
BBX 20 28 1 0
BITMAP
000600
000700
000380
0000C0
000020
000000
000000
000000
0000C0
000320
000C20
001020
006040
00C040
014080
028100
048100
090210
110420
210840
411080
412100
80C600
80B800
810000
820000
840000
F80000
ENDCHAR
STARTCHAR 00F3
ENCODING 243
SWIDTH 208 0
DWIDTH 15 0
BBX 22 26 0 1
BITMAP
00001C
00003C
000070
0000C0
000000
000000
000060
0003B0
000410
001820
003020
006040
00C040
034080
068100
048108
088210
108420
208840
209080
406300
405C00
808000
810000
860000
780000
ENDCHAR
STARTCHAR 00F4
ENCODING 244
SWIDTH 208 0
DWIDTH 15 0
BBX 21 30 1 1
BITMAP
000008
000018
000068
0000C8
000108
000608
000000
000000
000000
000000
0000C0
000320
000C20
001020
006040
00C040
014080
028100
048100
090210
110420
210840
411080
412100
80C600
80B800
810000
820000
840000
F80000
ENDCHAR
STARTCHAR 00F5
ENCODING 245
SWIDTH 208 0
DWIDTH 15 0
BBX 23 26 1 1
BITMAP
0007C0
000872
00001C
000000
000000
000000
0000C0
000320
000C20
001020
006040
00C040
014080
028100
048100
090210
110420
210840
411080
412100
80C600
80B800
810000
820000
840000
F80000
ENDCHAR
STARTCHAR 00F6
ENCODING 246
SWIDTH 208 0
DWIDTH 15 0
BBX 23 26 1 1
BITMAP
000306
000606
00040C
000000
000000
000000
0000C0
000320
000C20
001020
006040
00C040
014080
028100
048100
090210
110420
210840
411080
412100
80C600
80B800
810000
820000
840000
F80000
ENDCHAR
STARTCHAR 00F8
ENCODING 248
SWIDTH 222 0
DWIDTH 16 0
BBX 27 21 -3 -1
BITMAP
00000420
00003B40
00004380
00018200
00030600
000E0C00
001C3400
00244800
00489000
008B1000
01142000
03084300
02108400
04710800
048A3000
0907C000
0A0C0000
0C100000
18600000
28800000
C7000000
ENDCHAR
STARTCHAR 00F9
ENCODING 249
SWIDTH 305 0
DWIDTH 22 0
BBX 22 29 5 -1
BITMAP
000C00
000F00
000380
0000C0
000000
000000
000000
001000
00E804
01080C
020818
041010
083020
106060
20C0C0
418080
830100
020300
04060C
0C0408
180810
301820
203040
40D080
412100
822200
842400
581800
200000
ENDCHAR
STARTCHAR 00FA
ENCODING 250
SWIDTH 305 0
DWIDTH 22 0
BBX 23 29 5 -1
BITMAP
000006
00000E
000018
000020
000000
000000
000000
001000
00E804
01080C
020818
041010
083020
106060
20C0C0
418080
830100
020300
04060C
0C0408
180810
301820
203040
40D080
412100
822200
842400
581800
200000
ENDCHAR
STARTCHAR 00FB
ENCODING 251
SWIDTH 305 0
DWIDTH 22 0
BBX 22 31 5 -1
BITMAP
000004
00001C
000034
000044
000184
000200
000000
000000
000000
001000
00E804
01080C
020818
041010
083020
106060
20C0C0
418080
830100
020300
04060C
0C0408
180810
301820
203040
40D080
412100
822200
842400
581800
200000
ENDCHAR
STARTCHAR 00FC
ENCODING 252
SWIDTH 305 0
DWIDTH 22 0
BBX 24 28 5 -2
BITMAP
000102
000307
000606
000000
000000
000000
001000
00E804
01080C
020818
041010
083020
106060
20C0C0
418080
830100
020300
04060C
0C0408
180810
301820
203040
40D080
412100
822200
842400
581800
200000
ENDCHAR
STARTCHAR 00FF
ENCODING 255
SWIDTH 291 0
DWIDTH 21 0
BBX 40 51 -11 -26
BITMAP
0000000102
0000000707
0000000606
0000000000
0000000000
0000000000
0000000000
000000F008
0000031010
0000041030
0000081060
0000102060
00002060C0
000040C180
0000818300
0001030200
0001060600
00000C0C10
0000180810
0000301020
0000202040
0000404080
0000C0C100
0000818200
0000828400
00008D0800
0000711000
0000022000
000002C000
0000050000
0000060000
0000080000
0000180000
0000700000
0001A00000
0002200000
000C400000
0010800000
0061800000
0081000000
0102000000
0604000000
0808000000
1010000000
2020000000
4040000000
4080000000
8300000000
8400000000
5800000000
2000000000
ENDCHAR
STARTCHAR 0131
ENCODING 305
SWIDTH 97 0
DWIDTH 7 0
BBX 12 19 0 0
BITMAP
0010
0020
0040
00C0
0180
0100
0200
0600
0C00
0810
1020
3040
2040
4080
8100
8200
8C00
B800
6000
ENDCHAR
STARTCHAR 0152
ENCODING 338
SWIDTH 930 0
DWIDTH 67 0
BBX 78 48 11 -4
BITMAP
000000000007C0007FF0
0000001FC03820038008
0000006038C0201C0004
00000180070020700004
00000200060060E00004
00000C000900A1800008
000018003100A7000030
00001000608126000040
00002000C0826C000180
00004001808C7C000E00
0000400300B05800F000
0000800600C0F81F0000
0000800C0780F0000000
000100187880B0000000
000100338101B0000000
00000F7C010130000000
000071C0010318000000
00038380020218000000
000C070002060E000000
00300E00020C07FC0000
00400E00040CFFFC0000
01801C00043300000000
02003800087000000000
0C00300009A000000000
100070001640FC000000
2000E0002CC303000000
2000C000388C01800000
4001C000791000800000
40018000F22000800000
40030001664000C00000
80030002E48000C00000
80060005C88000C00000
80060019D10000C00000
40040021B10001800000
400C00C3A00001800000
40080303400001800000
20081C03800003000000
1808E003000003000000
07FF0003000006000000
0010000700000C000000
0010000B000018000000
00100013000010000000
00100061800020000000
001000808000C0000000
00100100C00100000000
00080600200600000000
000418001C3800000000
0003E00003C000000000
ENDCHAR
STARTCHAR 0153
ENCODING 339
SWIDTH 333 0
DWIDTH 24 0
BBX 29 21 1 -2
BITMAP
00004010
0003B0E8
00043310
00182410
00302860
00E07080
01C06100
0240C600
04809800
0881E000
11031008
31062010
210C4020
411C8040
40AB0080
807C0100
80D00200
81100C00
86101000
88082000
7007C000
ENDCHAR
STARTCHAR 0178
ENCODING 376
SWIDTH 777 0
DWIDTH 56 0
BBX 67 73 7 -25
BITMAP
000000000000000060
0000000000000000E0
000000000000000180
000000000000000200
0000000007FE000000
000000003801800000
00000001C000400000
000000060000200000
000000180000200000
000000200000200000
000000C00000200000
000001000000200000
0000060003802000E0
00000C001C40200120
00001800E020200320
000030030020200240
000060040020400440
0000C0180040400880
000180200040801080
000300400041801100
000600800081002200
000601000283004400
000C02003D46004400
00080400C22C008800
001804010418011000
003008060430012000
003010080870022000
0020200810D0044000
006020002190048000
004040004390090000
004040008710120000
004080010620140000
004080060C20280000
008100081820280000
004100103040500000
004100606040A00000
004200804080C00000
002203008081800000
00120C018101000000
000E70010202000000
000580020406000000
00040002081C000000
000400040824000000
000200043048000000
000200044188000000
000200048210000000
000200050C10000000
000100027020000000
0000800D8020000000
000060700040000000
00001F800040000000
000000000080000000
000000000080200000
000000000100400000
0001FFF00301800000
001E000FFE3E000000
00E0000007C0000000
030000000C00000000
040000001800000000
080000003000000000
300000006000000000
20000000C000000000
400000018000000000
400000030000000000
800000040000000000
800000080000000000
800000200000000000
400000C00000000000
400003000000000000
20000C000000000000
180030000000000000
0603C0000000000000
01FC00000000000000
ENDCHAR
STARTCHAR 0192
ENCODING 402
SWIDTH 111 0
DWIDTH 8 0
BBX 65 69 -31 -25
BITMAP
000000000000000180
000000000000000680
000000000000001880
000000000000002080
000000000000004100
000000000000008100
000000000000010200
000000000000020400
000000000000040800
000000000000083000
000000000000104000
000000000000108000
000000000000230000
000000000000440000
000000000000980000
000000000000A00000
000000000001400000
000000000001800000
000000000002000000
00000000000C000000
00000000003C000000
000000000048000000
000000000090000000
000000000330000000
000000000460000000
0000000003FC000000
0000000000C0000000
000000000180000000
000000000180000000
000000000300000000
000000000600000000
000000000600000000
000000000C00000000
000000000800000000
000000001000000000
000000003000000000
000000002000000000
000000004000000000
00000000C000000000
000000008000000000
000000010000000000
000000030000000000
000000020000000000
000000040000000000
000000040000000000
000000080000000000
000000100000000000
000000100000000000
000000200000000000
000000400000000000
000000400000000000
000000800000000000
000001000000000000
000001000000000000
000002000000000000
000004000000000000
000004000000000000
000008000000000000
000010000000000000
000020000000000000
000040000000000000
000080000000000000
000100000000000000
000200000000000000
000400000000000000
000800000000000000
803000000000000000
40C000000000000000
3F0000000000000000
ENDCHAR
STARTCHAR 02DA
ENCODING 730
SWIDTH 291 0
DWIDTH 21 0
BBX 7 8 9 22
BITMAP
0C
12
22
42
84
84
88
70
ENDCHAR
STARTCHAR 02DC
ENCODING 732
SWIDTH 402 0
DWIDTH 29 0
BBX 13 3 15 46
BITMAP
7F00
81D8
0020
ENDCHAR
STARTCHAR 2013
ENCODING 8211
SWIDTH 388 0
DWIDTH 28 0
BBX 21 5 9 12
BITMAP
040000
3BC008
C07010
001E60
000180
ENDCHAR
STARTCHAR 2014
ENCODING 8212
SWIDTH 638 0
DWIDTH 46 0
BBX 32 4 14 22
BITMAP
07F80000
181F8001
6001F006
80003FF8
ENDCHAR
STARTCHAR 2018
ENCODING 8216
SWIDTH 458 0
DWIDTH 33 0
BBX 7 9 31 34
BITMAP
80
C0
E0
70
30
18
0C
04
02
ENDCHAR
STARTCHAR 2019
ENCODING 8217
SWIDTH 180 0
DWIDTH 13 0
BBX 9 9 25 35
BITMAP
0100
0380
0700
0F00
0C00
1800
3000
4000
8000
ENDCHAR
STARTCHAR 201C
ENCODING 8220
SWIDTH 236 0
DWIDTH 17 0
BBX 12 9 20 34
BITMAP
4400
EE00
7700
7780
3B80
1DC0
0C40
0220
0110
ENDCHAR
STARTCHAR 201D
ENCODING 8221
SWIDTH 486 0
DWIDTH 35 0
BBX 12 9 30 35
BITMAP
0220
0670
0EE0
1DC0
3B80
7300
4600
8800
1000
ENDCHAR
STARTCHAR 2020
ENCODING 8224
SWIDTH 111 0
DWIDTH 8 0
BBX 29 33 0 1
BITMAP
00000C00
00000800
00001000
00003000
00006000
0000C000
00038008
00058010
000B0010
00320020
007E0040
000DFF80
00080000
00180000
00300000
00600000
00400000
00C00000
01800000
01000000
02000000
06000000
04080000
08100000
18200000
10200000
20400000
20800000
41000000
82000000
84000000
58000000
70000000
ENDCHAR
STARTCHAR 2022
ENCODING 8226
SWIDTH 97 0
DWIDTH 7 0
BBX 4 4 4 4
BITMAP
20
70
E0
C0
ENDCHAR
ENDFONT
